<?xml version="1.0" encoding="UTF-8" standalone="no"?>
<svg width="24px" height="24px" viewBox="0 0 24 24" version="1.1" xmlns="http://www.w3.org/2000/svg" xmlns:xlink="http://www.w3.org/1999/xlink">
    <!-- Generator: Sketch 40.3 (33839) - http://www.bohemiancoding.com/sketch -->
    <title>Icons/Dark/Calendar Copy</title>
    <desc>Created with Sketch.</desc>
    <defs></defs>
    <g id="--Symbols" stroke="none" stroke-width="1" fill="none" fill-rule="evenodd">
        <g id="Icons/Dark/Calendar-Copy" fill="#495165">
            <path d="M19.9882243,17.5057956 L12.8712987,4.82877194 C12.7230295,4.55076728 12.4635582,4.41176471 12.092885,4.41176471 C11.7222118,4.41176471 11.4627406,4.55076728 11.3144713,4.82877194 L4.19754574,17.5057956 C4.04927645,17.7652668 4.05854317,18.0247381 4.22534587,18.2842093 C4.37361515,18.5251471 4.62381969,18.6456158 4.97595947,18.6456158 L19.2098106,18.6456158 C19.5619499,18.6456158 19.8121544,18.5251471 19.9604237,18.2842093 C20.1272269,18.0247381 20.1364936,17.7652668 19.9882243,17.5057956 L19.9882243,17.5057956 Z M12.9825007,16.4771778 C12.9825007,16.6069132 12.9407998,16.7134815 12.8573984,16.7968834 C12.7739971,16.8802847 12.6674282,16.9219856 12.5376929,16.9219856 L11.6480772,16.9219856 C11.5183413,16.9219856 11.4117729,16.8802847 11.3283716,16.7968834 C11.2449698,16.7134815 11.2032693,16.6069132 11.2032693,16.4771778 L11.2032693,15.5875621 C11.2032693,15.4578262 11.2449698,15.3512579 11.3283716,15.267856 C11.4117729,15.1844547 11.5183413,15.1427542 11.6480772,15.1427542 L12.5376929,15.1427542 C12.6674282,15.1427542 12.7739971,15.1844547 12.8573984,15.267856 C12.9407998,15.3512579 12.9825007,15.4578262 12.9825007,15.5875621 L12.9825007,16.4771778 Z M12.9825007,13.7527295 C12.9825007,13.8824653 12.9407998,13.9890337 12.8573984,14.0724351 C12.7739971,14.1558364 12.6674282,14.1975373 12.5376929,14.1975373 L11.6480772,14.1975373 C11.5183413,14.1975373 11.4117729,14.1558364 11.3283716,14.0724351 C11.2449698,13.9890337 11.2032693,13.8824653 11.2032693,13.7527295 L11.2032693,8.41503532 C11.2032693,8.28529947 11.2449698,8.1787311 11.3283716,8.09532974 C11.4117729,8.01192839 11.5183413,7.97022748 11.6480772,7.97022748 L12.5376929,7.97022748 C12.6674282,7.97022748 12.7739971,8.01192839 12.8573984,8.09532974 C12.9407998,8.1787311 12.9825007,8.28529947 12.9825007,8.41503532 L12.9825007,13.7527295 Z" id="Shape"></path>
        </g>
    </g>
</svg>