<?xml version="1.0" encoding="UTF-8" standalone="no"?>
<svg width="24px" height="24px" viewBox="0 0 24 24" version="1.1" xmlns="http://www.w3.org/2000/svg" xmlns:xlink="http://www.w3.org/1999/xlink">
    <!-- Generator: Sketch 40.1 (33804) - http://www.bohemiancoding.com/sketch -->
    <title>Icons/Dark/Calendar</title>
    <desc>Created with Sketch.</desc>
    <defs></defs>
    <g id="--Symbols" stroke="none" stroke-width="1" fill="none" fill-rule="evenodd">
        <g id="Icons/Dark/Calendar" fill="#495165">
            <path d="M18.9062501,5 L17,5 L17,4.5 C17,4.375 16.9374997,4.26041653 16.8125003,4.15625013 C16.6874997,4.0520832 16.5520832,4 16.4062501,4 L15.4062501,4 C15.1354165,4 15,4.16666667 15,4.5 L15,5 L13,5 L13,4.5 C13,4.3541664 12.9531248,4.23437493 12.8593749,4.14062507 C12.7656251,4.0468752 12.6458336,4 12.5,4 L11.5,4 C11.3541664,4 11.2343749,4.0468752 11.1406251,4.14062507 C11.0468752,4.23437493 11,4.3541664 11,4.5 L11,5 L9,5 L9,4.5 C9,4.16666667 8.86458347,4 8.59374987,4 L7.59374987,4 C7.4479168,4 7.31250027,4.0520832 7.18749973,4.15625013 C7.06250027,4.26041653 7,4.375 7,4.5 L7,5 L5.09374987,5 C4.8229168,5 4.5729168,5.0989584 4.34374987,5.2968752 C4.11458347,5.49479147 4,5.72916693 4,6 L4,19 C4,19.2708331 4.11458347,19.5052085 4.34374987,19.7031248 C4.5729168,19.9010416 4.8229168,20 5.09374987,20 L18.9062501,20 C19.1770832,20 19.4270832,19.9010416 19.6562501,19.7031248 C19.8854165,19.5052085 20,19.2708331 20,19 L20,6 C20,5.72916693 19.8854165,5.49479147 19.6562501,5.2968752 C19.4270832,5.0989584 19.1770832,5 18.9062501,5 L18.9062501,5 Z M9,18 L7,18 L7,16 L9,16 L9,18 Z M9,14 L7,14 L7,12 L9,12 L9,14 Z M13,18 L11,18 L11,16 L13,16 L13,18 Z M13,14 L11,14 L11,12 L13,12 L13,14 Z M17,18 L15,18 L15,16 L17,16 L17,18 Z M17,14 L15,14 L15,12 L17,12 L17,14 Z M18,10 L6,10 L6,7 L7,7 L7,7.5 C7,7.625 7.06250027,7.73958347 7.18749973,7.84374987 C7.31250027,7.9479168 7.4479168,8 7.59374987,8 L8.59374987,8 C8.86458347,8 9,7.83333333 9,7.5 L9,7 L11,7 L11,7.5 C11,7.6458336 11.0468752,7.76562507 11.1406251,7.85937493 C11.2343749,7.9531248 11.3541664,8 11.5,8 L12.5,8 C12.6458336,8 12.7656251,7.9531248 12.8593749,7.85937493 C12.9531248,7.76562507 13,7.6458336 13,7.5 L13,7 L15,7 L15,7.5 C15,7.83333333 15.1354165,8 15.4062501,8 L16.4062501,8 C16.5520832,8 16.6874997,7.9479168 16.8125003,7.84374987 C16.9374997,7.73958347 17,7.625 17,7.5 L17,7 L18,7 L18,10 Z" id="Shape"></path>
        </g>
    </g>
</svg>