<?xml version="1.0" encoding="UTF-8" standalone="no"?>
<svg width="24px" height="24px" viewBox="0 0 24 24" version="1.1" xmlns="http://www.w3.org/2000/svg" xmlns:xlink="http://www.w3.org/1999/xlink">
    <!-- Generator: Sketch 39.1 (31720) - http://www.bohemiancoding.com/sketch -->
    <title>Icons/Dark/Cart/Multi</title>
    <desc>Created with Sketch.</desc>
    <defs></defs>
    <g id="--Symbols" stroke="none" stroke-width="1" fill="none" fill-rule="evenodd">
        <g id="Icons/Dark/Cart/Multi" fill="#495165">
            <path d="M9.33185288,19.7578093 C9.08990664,19.9213533 8.81291552,20.0031256 8.50087907,20.0031256 C8.08413101,20.0031256 7.72989542,19.8572635 7.43817124,19.5655404 C7.14644813,19.2738162 7.00058605,18.9195806 7.00058605,18.5028326 C7.00058605,18.0860845 7.14644813,17.7318489 7.43817124,17.4401247 C7.72989542,17.1484016 8.08413101,17.0025395 8.50087907,17.0025395 C8.81291562,17.0025395 9.08990682,17.0843118 9.33185311,17.247856 C9.11317255,17.6223043 9.00058605,18.0463076 9.00058605,18.5028326 C9.00058605,18.9593579 9.11317274,19.3833616 9.33185288,19.7578093 Z M8.335496,16.0927697 C7.65242029,16.0571122 7.03184228,16.0023442 7.03184228,16.0023442 C6.76095578,16.0023442 6.52132551,15.9033665 6.31295201,15.705411 C6.10457745,15.5074561 6.0003907,15.2730348 6.0003907,15.0021488 L6.0003907,12.0015628 L6.0003907,6.0003907 L5.00019535,6.0003907 C4.72930937,6.0003907 4.49488812,5.90141297 4.29693319,5.7034575 C4.09897773,5.50550257 4,5.27108132 4,5.00019535 C4,4.72930937 4.09897773,4.49488812 4.29693319,4.29693319 C4.49488812,4.09897773 4.72930937,4 5.00019535,4 C5.00019535,4 5.53106715,4.01172009 6.25040239,4.03406425 C6.08601118,4.32534497 6,4.65220731 6,5.00019535 C6,5.53879019 6.20603958,6.02677849 6.58982737,6.41056524 C6.97361221,6.79435111 7.4616005,7.0003907 8.00019535,7.0003907 L8.0003907,12.0015628 L8.0003907,15.0021488 C8.0003907,15.4019258 8.11670705,15.7726846 8.335496,16.0927697 Z M6.33185288,19.7578093 C6.08990664,19.9213533 5.81291552,20.0031256 5.50087907,20.0031256 C5.08413101,20.0031256 4.72989542,19.8572635 4.43817124,19.5655404 C4.14644813,19.2738162 4.00058605,18.9195806 4.00058605,18.5028326 C4.00058605,18.0860845 4.14644813,17.7318489 4.43817124,17.4401247 C4.72989542,17.1484016 5.08413101,17.0025395 5.50087907,17.0025395 C5.81291562,17.0025395 6.08990682,17.0843118 6.33185311,17.247856 C6.11317255,17.6223043 6.00058605,18.0463076 6.00058605,18.5028326 C6.00058605,18.9593579 6.11317274,19.3833616 6.33185288,19.7578093 Z M5.335496,16.0927697 C4.65242029,16.0571122 4.03184228,16.0023442 4.03184228,16.0023442 C3.76095578,16.0023442 3.52132551,15.9033665 3.31295201,15.705411 C3.10457745,15.5074561 3.0003907,15.2730348 3.0003907,15.0021488 L3.0003907,12.0015628 L3.0003907,6.0003907 L2.00019535,6.0003907 C1.72930937,6.0003907 1.49488812,5.90141297 1.29693319,5.7034575 C1.09897773,5.50550257 1,5.27108132 1,5.00019535 C1,4.72930937 1.09897773,4.49488812 1.29693319,4.29693319 C1.49488812,4.09897773 1.72930937,4 2.00019535,4 C2.00019535,4 2.53106715,4.01172009 3.25040239,4.03406425 C3.08601118,4.32534497 3,4.65220731 3,5.00019535 C3,5.53879019 3.20603958,6.02677849 3.58982737,6.41056524 C3.97361221,6.79435111 4.4616005,7.0003907 5.00019535,7.0003907 L5.0003907,12.0015628 L5.0003907,15.0021488 C5.0003907,15.4019258 5.11670705,15.7726846 5.335496,16.0927697 Z M22.1904666,4 L8.00019535,4 C7.72930937,4 7.49488812,4.09897773 7.29693319,4.29693319 C7.09897773,4.49488812 7,4.72930937 7,5.00019535 C7,5.27108132 7.09897773,5.50550257 7.29693319,5.7034575 C7.49488812,5.90141297 7.72930937,6.0003907 8.00019535,6.0003907 L9.0003907,6.0003907 L9.0003907,12.0015628 L9.0003907,15.0021488 C9.0003907,15.2730348 9.10457745,15.5074561 9.31295201,15.705411 C9.52132551,15.9033665 9.76095578,16.0023442 10.0318423,16.0023442 L20.0025395,16.0023442 C20.2734255,16.0023442 20.5078468,15.9033665 20.7058017,15.705411 C20.9037571,15.5074561 21.0027349,15.2730348 21.0027349,15.0021488 C21.0027349,14.7312629 20.9037571,14.4968416 20.7058017,14.2988867 C20.5078468,14.1009312 20.2734255,14.0019535 20.0025395,14.0019535 L11.0007814,14.0019535 L11.0007814,12.0015628 L20.1900759,12.0015628 C20.4609624,12.0015628 20.7214298,11.9077946 20.9714786,11.7202577 C21.2215275,11.5327214 21.3778081,11.3035097 21.4403201,11.0326237 L22.9718693,4.96893911 C23.0343818,4.69805314 22.992707,4.46884144 22.8468449,4.28130508 C22.7009834,4.09376818 22.4821908,4 22.1904666,4 Z M19.59621,10.0011721 L11.0007814,10.0011721 L11.0007814,6.0003907 L20.1900759,6.0003907 L20.408869,6.0003907 L19.59621,10.0011721 Z M10.000586,18.5028326 C10.000586,18.9195806 10.1464481,19.2738162 10.4381712,19.5655404 C10.7298954,19.8572635 11.084131,20.0031256 11.5008791,20.0031256 C11.9176271,20.0031256 12.2718627,19.8572635 12.5635869,19.5655404 C12.85531,19.2738162 13.0011721,18.9195806 13.0011721,18.5028326 C13.0011721,18.0860845 12.85531,17.7318489 12.5635869,17.4401247 C12.2718627,17.1484016 11.9176271,17.0025395 11.5008791,17.0025395 C11.084131,17.0025395 10.7298954,17.1484016 10.4381712,17.4401247 C10.1464481,17.7318489 10.000586,18.0860845 10.000586,18.5028326 Z M17.0019535,18.5028326 C17.0019535,18.9195806 17.1478156,19.2738162 17.4395387,19.5655404 C17.7312629,19.8572635 18.0854984,20.0031256 18.5022465,20.0031256 C18.9189946,20.0031256 19.2732302,19.8572635 19.5649543,19.5655404 C19.8566774,19.2738162 20.0025395,18.9195806 20.0025395,18.5028326 C20.0025395,18.0860845 19.8566774,17.7318489 19.5649543,17.4401247 C19.2732302,17.1484016 18.9189946,17.0025395 18.5022465,17.0025395 C18.0854984,17.0025395 17.7312629,17.1484016 17.4395387,17.4401247 C17.1478156,17.7318489 17.0019535,18.0860845 17.0019535,18.5028326 Z" id="Shape"></path>
        </g>
    </g>
</svg>