<?xml version="1.0" encoding="UTF-8" standalone="no"?>
<svg width="24px" height="24px" viewBox="0 0 24 24" version="1.1" xmlns="http://www.w3.org/2000/svg" xmlns:xlink="http://www.w3.org/1999/xlink">
    <!-- Generator: Sketch 39.1 (31720) - http://www.bohemiancoding.com/sketch -->
    <title>Icons/Dark/Cart/Single</title>
    <desc>Created with Sketch.</desc>
    <defs></defs>
    <g id="--Symbols" stroke="none" stroke-width="1" fill="none" fill-rule="evenodd">
        <g id="Icons/Dark/Cart/Single" fill="#495165">
            <path d="M19.1874997,4 L5,4 C4.72916693,4 4.49479147,4.0989584 4.2968752,4.2968752 C4.0989584,4.49479147 4,4.72916693 4,5 C4,5.27083307 4.0989584,5.50520853 4.2968752,5.7031248 C4.49479147,5.9010416 4.72916693,6 5,6 L6,6 L6,12 L6,15 C6,15.2708331 6.1041664,15.5052085 6.31250027,15.7031248 C6.52083307,15.9010416 6.76041653,16 7.03125013,16 L17,16 C17.2708331,16 17.5052085,15.9010416 17.7031248,15.7031248 C17.9010416,15.5052085 18,15.2708331 18,15 C18,14.7291669 17.9010416,14.4947915 17.7031248,14.2968752 C17.5052085,14.0989584 17.2708331,14 17,14 L8,14 L8,12 L17.1874997,12 C17.4583333,12 17.7187499,11.9062501 17.9687499,11.7187499 C18.2187499,11.5312501 18.375,11.3020832 18.4374997,11.0312501 L19.9687499,4.96874987 C20.0312501,4.6979168 19.9895835,4.46874987 19.8437499,4.28125013 C19.6979168,4.09374987 19.4791669,4 19.1874997,4 L19.1874997,4 Z M16.5937499,10 L8,10 L8,6 L17.1874997,6 L17.4062501,6 L16.5937499,10 Z M7,18.5 C7,18.9166667 7.1458336,19.2708331 7.43749973,19.5625003 C7.72916693,19.8541664 8.08333333,20 8.5,20 C8.91666667,20 9.27083307,19.8541664 9.56250027,19.5625003 C9.8541664,19.2708331 10,18.9166667 10,18.5 C10,18.0833333 9.8541664,17.7291669 9.56250027,17.4374997 C9.27083307,17.1458336 8.91666667,17 8.5,17 C8.08333333,17 7.72916693,17.1458336 7.43749973,17.4374997 C7.1458336,17.7291669 7,18.0833333 7,18.5 L7,18.5 Z M14,18.5 C14,18.9166667 14.1458336,19.2708331 14.4374997,19.5625003 C14.7291669,19.8541664 15.0833333,20 15.5,20 C15.9166667,20 16.2708331,19.8541664 16.5625003,19.5625003 C16.8541664,19.2708331 17,18.9166667 17,18.5 C17,18.0833333 16.8541664,17.7291669 16.5625003,17.4374997 C16.2708331,17.1458336 15.9166667,17 15.5,17 C15.0833333,17 14.7291669,17.1458336 14.4374997,17.4374997 C14.1458336,17.7291669 14,18.0833333 14,18.5 L14,18.5 Z" id="Shape"></path>
        </g>
    </g>
</svg>