<?xml version="1.0" encoding="UTF-8" standalone="no"?>
<svg width="24px" height="24px" viewBox="0 0 24 24" version="1.1" xmlns="http://www.w3.org/2000/svg" xmlns:xlink="http://www.w3.org/1999/xlink">
    <!-- Generator: Sketch 40.1 (33804) - http://www.bohemiancoding.com/sketch -->
    <title>Icons/Dark/Details</title>
    <desc>Created with Sketch.</desc>
    <defs></defs>
    <g id="--Symbols" stroke="none" stroke-width="1" fill="none" fill-rule="evenodd">
        <g id="Icons/Dark/Details" fill="#495165">
            <path d="M5.5,7 L4.5,7 C4.3541664,7 4.23437493,7.0468752 4.14062507,7.14062507 C4.0468752,7.23437493 4,7.3541664 4,7.5 L4,8.5 C4,8.6458336 4.0468752,8.76562507 4.14062507,8.85937493 C4.23437493,8.9531248 4.3541664,9 4.5,9 L5.5,9 C5.6458336,9 5.76562507,8.9531248 5.85937493,8.85937493 C5.9531248,8.76562507 6,8.6458336 6,8.5 L6,7.5 C6,7.3541664 5.9531248,7.23437493 5.85937493,7.14062507 C5.76562507,7.0468752 5.6458336,7 5.5,7 L5.5,7 Z M19.5,7 L7.5,7 C7.3541664,7 7.23437493,7.0468752 7.14062507,7.14062507 C7.0468752,7.23437494 7,7.35416641 7,7.50000001 L7,8.50000002 C7,8.64583362 7.0468752,8.76562509 7.14062507,8.85937496 C7.23437493,8.95312483 7.3541664,9.00000003 7.5,9.00000003 L19.5,9.00000003 C19.6458336,9.00000003 19.7656251,8.95312483 19.8593749,8.85937496 C19.9531248,8.76562509 20,8.64583362 20,8.50000002 L20,7.50000001 C20,7.35416641 19.9531248,7.23437494 19.8593749,7.14062507 C19.7656251,7.0468752 19.6458336,7 19.5,7 L19.5,7 Z M5.5,11 L4.5,11 C4.3541664,11 4.23437493,11.0468752 4.14062507,11.1406251 C4.0468752,11.2343749 4,11.3541664 4,11.5 L4,12.5 C4,12.6458336 4.0468752,12.7656251 4.14062507,12.8593749 C4.23437493,12.9531248 4.3541664,13 4.5,13 L5.5,13 C5.6458336,13 5.76562507,12.9531248 5.85937493,12.8593749 C5.9531248,12.7656251 6,12.6458336 6,12.5 L6,11.5 C6,11.3541664 5.9531248,11.2343749 5.85937493,11.1406251 C5.76562507,11.0468752 5.6458336,11 5.5,11 L5.5,11 Z M19.5,11 L7.5,11 C7.3541664,11 7.23437493,11.0468752 7.14062507,11.1406251 C7.0468752,11.2343749 7,11.3541664 7,11.5 L7,12.5 C7,12.6458336 7.0468752,12.7656251 7.14062507,12.8593749 C7.23437493,12.9531248 7.3541664,13 7.5,13 L19.5,13 C19.6458336,13 19.7656251,12.9531248 19.8593749,12.8593749 C19.9531248,12.7656251 20,12.6458336 20,12.5 L20,11.5 C20,11.3541664 19.9531248,11.2343749 19.8593749,11.1406251 C19.7656251,11.0468752 19.6458336,11 19.5,11 L19.5,11 Z M5.5,15 L4.5,15 C4.3541664,15 4.23437493,15.0468752 4.14062507,15.1406251 C4.0468752,15.2343749 4,15.3541664 4,15.5 L4,16.5 C4,16.6458336 4.0468752,16.7656251 4.14062507,16.8593749 C4.23437493,16.9531248 4.3541664,17 4.5,17 L5.5,17 C5.6458336,17 5.76562507,16.9531248 5.85937493,16.8593749 C5.9531248,16.7656251 6,16.6458336 6,16.5 L6,15.5 C6,15.3541664 5.9531248,15.2343749 5.85937493,15.1406251 C5.76562507,15.0468752 5.6458336,15 5.5,15 L5.5,15 Z M19.5,15 L7.5,15 C7.3541664,15 7.23437493,15.0468752 7.14062507,15.1406251 C7.0468752,15.2343749 7,15.3541664 7,15.5 L7,16.5 C7,16.6458336 7.0468752,16.7656251 7.14062507,16.8593749 C7.23437493,16.9531248 7.3541664,17 7.5,17 L19.5,17 C19.6458336,17 19.7656251,16.9531248 19.8593749,16.8593749 C19.9531248,16.7656251 20,16.6458336 20,16.5 L20,15.5 C20,15.3541664 19.9531248,15.2343749 19.8593749,15.1406251 C19.7656251,15.0468752 19.6458336,15 19.5,15 L19.5,15 Z" id="Shape"></path>
        </g>
    </g>
</svg>