<?xml version="1.0" encoding="UTF-8" standalone="no"?>
<svg width="24px" height="24px" viewBox="0 0 24 24" version="1.1" xmlns="http://www.w3.org/2000/svg" xmlns:xlink="http://www.w3.org/1999/xlink">
    <!-- Generator: Sketch 40.1 (33804) - http://www.bohemiancoding.com/sketch -->
    <title>Icons/Dark/Facebook</title>
    <desc>Created with Sketch.</desc>
    <defs></defs>
    <g id="--Symbols" stroke="none" stroke-width="1" fill="none" fill-rule="evenodd">
        <g id="Icons/Dark/Facebook" fill="#495165">
            <path d="M19,4 L5,4 C4.72916693,4 4.49479147,4.0989584 4.2968752,4.2968752 C4.0989584,4.49479147 4,4.72916693 4,5 L4,19 C4,19.2708331 4.0989584,19.5052085 4.2968752,19.7031248 C4.49479147,19.9010416 4.72916693,20 5,20 L19,20 C19.2708331,20 19.5052085,19.9010416 19.7031248,19.7031248 C19.9010416,19.5052085 20,19.2708331 20,19 L20,5 C20,4.72916693 19.9010416,4.49479147 19.7031248,4.2968752 C19.5052085,4.0989584 19.2708331,4 19,4 L19,4 Z M15,9 L14,9 C13.5416667,9 13.2604165,9.09374987 13.1562501,9.28125013 C13.0520832,9.46874987 13,10.0416667 13,11 L15,11 L15,13 L13,13 L13,17 L11,17 L11,13 L9,13 L9,11 L11,11 C11,10.4583333 11.0208331,10.0208331 11.0625003,9.68749973 C11.1041664,9.3541664 11.2083333,8.9479168 11.375,8.46874987 C11.5416667,7.98958347 11.8437499,7.625 12.2812501,7.375 C12.7187499,7.125 13.2916667,7 14,7 L15,7 L15,9 Z" id="Shape"></path>
        </g>
    </g>
</svg>