<?xml version="1.0" encoding="UTF-8" standalone="no"?>
<svg width="24px" height="24px" viewBox="0 0 24 24" version="1.1" xmlns="http://www.w3.org/2000/svg" xmlns:xlink="http://www.w3.org/1999/xlink">
    <!-- Generator: Sketch 40.1 (33804) - http://www.bohemiancoding.com/sketch -->
    <title>Icons/Dark/Google Plus</title>
    <desc>Created with Sketch.</desc>
    <defs></defs>
    <g id="--Symbols" stroke="none" stroke-width="1" fill="none" fill-rule="evenodd">
        <g id="Icons/Dark/Google-Plus" fill="#495165">
            <path d="M10,13.5625003 L9.78125013,13.5625003 C9.11458347,13.6041664 8.56250027,13.8125003 8.125,14.1874997 C7.68749973,14.5625003 7.47916693,14.9895835 7.5,15.4687499 C7.54166667,15.9270832 7.8020832,16.2916667 8.28125013,16.5625003 C8.76041653,16.8333333 9.33333333,16.9479168 10,16.9062501 C10.6666667,16.8437499 11.1979168,16.6510416 11.5937499,16.3281248 C11.9895835,16.0052085 12.1770832,15.6041664 12.1562501,15.125 C12.1145835,14.6666667 11.8958336,14.2916667 11.5,14 C11.1041664,13.7083333 10.6041664,13.5625003 10,13.5625003 L10,13.5625003 Z M11.2812501,8.34374987 C11.0937499,7.78125013 10.8593749,7.39062507 10.5781248,7.1718752 C10.2968752,6.9531248 9.9270832,6.84374987 9.46874987,6.84374987 C9.38541653,6.84374987 9.29166667,6.8541664 9.18749973,6.875 C8.81250027,6.97916693 8.53125013,7.26041653 8.34374987,7.71874987 C8.1770832,8.15625013 8.16666667,8.63541653 8.31250027,9.15625013 C8.45833333,9.63541653 8.69270827,10.0260416 9.01562507,10.3281248 C9.33854187,10.6302085 9.6770832,10.7812501 10.0312501,10.7812501 C10.1145835,10.7812501 10.2083333,10.7708331 10.3125003,10.75 C10.7083333,10.6458336 11.0052085,10.3489584 11.2031248,9.85937493 C11.4010416,9.36979147 11.4270832,8.86458347 11.2812501,8.34374987 L11.2812501,8.34374987 Z M19,4 L5,4 C4.72916693,4 4.49479147,4.0989584 4.2968752,4.2968752 C4.0989584,4.49479147 4,4.72916693 4,5 L4,19 C4,19.2708331 4.0989584,19.5052085 4.2968752,19.7031248 C4.49479147,19.9010416 4.72916693,20 5,20 L19,20 C19.2708331,20 19.5052085,19.9010416 19.7031248,19.7031248 C19.9010416,19.5052085 20,19.2708331 20,19 L20,5 C20,4.72916693 19.9010416,4.49479147 19.7031248,4.2968752 C19.5052085,4.0989584 19.2708331,4 19,4 L19,4 Z M11.7812501,17.5625003 C11.1354165,17.8541664 10.4062501,18 9.59374987,18 L9.5,18 L9.40625013,18 C9.15625013,18 8.8958336,17.9791669 8.625,17.9374997 C8.3541664,17.8958336 7.99479147,17.8072917 7.5468752,17.6718752 C7.0989584,17.5364581 6.73437493,17.2812501 6.4531248,16.9062501 C6.1718752,16.5312501 6.03125013,16.0625003 6.03125013,15.5 C6.03125013,14.9583333 6.18749973,14.5052085 6.5,14.1406251 C6.81250027,13.7760416 7.21874987,13.5208331 7.71874987,13.375 C8.21874987,13.2291669 8.6458336,13.1302085 9,13.0781248 C9.3541664,13.0260416 9.6979168,13 10.0312501,13 L10.0625003,13 C9.8958336,12.7083333 9.78125013,12.4479168 9.71874987,12.2187499 C9.65625013,11.9895835 9.625,11.8333333 9.625,11.75 L9.625,11.5937499 C9.625,11.6145835 9.5989584,11.6197915 9.5468752,11.6093749 C9.49479147,11.5989584 9.45833333,11.5937499 9.43749973,11.5937499 C8.81250027,11.5937499 8.27083307,11.4583333 7.81250027,11.1874997 C7.1041664,10.75 6.75,10.0208331 6.75,9 C6.75,8.45833333 6.86458347,7.98437493 7.09374987,7.5781248 C7.3229168,7.1718752 7.59374987,6.875 7.90625013,6.68749973 C8.21874987,6.5 8.56250027,6.3489584 8.93749973,6.23437493 C9.31250027,6.11979147 9.58333333,6.0520832 9.75,6.03125013 C9.91666667,6.01041653 10.0416667,6 10.125,6 L14,6 L14,6.06250027 C14,6.125 13.9843749,6.1718752 13.9531248,6.2031248 C13.9218752,6.23437493 13.8697915,6.26562507 13.7968752,6.2968752 C13.7239584,6.3281248 13.6562501,6.3541664 13.5937499,6.375 C13.5312501,6.3958336 13.4479168,6.41666667 13.3437499,6.43749973 C13.2395835,6.45833333 13.1562501,6.4739584 13.0937499,6.48437493 C13.0312501,6.49479147 12.9427083,6.50520853 12.8281248,6.51562507 C12.7135419,6.5260416 12.6354165,6.53125013 12.5937499,6.53125013 C12.5729168,6.5520832 12.4947915,6.56770827 12.3593749,6.5781248 C12.2239584,6.58854187 12.0989584,6.5989584 11.9843749,6.60937493 C11.8697915,6.61979147 11.8020832,6.625 11.7812501,6.625 C12.1770832,6.83333333 12.4427083,7.0989584 12.5781248,7.4218752 C12.7135419,7.74479147 12.7812501,8.1770832 12.7812501,8.71874987 C12.7812501,9.61458347 12.4479168,10.3333333 11.7812501,10.875 C11.4270832,11.1874997 11.25,11.4322917 11.25,11.6093749 C11.25,11.7864581 11.4895835,12.0729168 11.9687499,12.4687499 C12.2604165,12.7187499 12.4895835,12.9270832 12.6562501,13.0937499 C12.8229168,13.2604165 13,13.5104165 13.1874997,13.8437499 C13.375,14.1770832 13.4687499,14.5312501 13.4687499,14.9062501 C13.4687499,16.1562501 12.9062501,17.0416667 11.7812501,17.5625003 L11.7812501,17.5625003 Z M18,12 L16,12 L16,14 L15,14 L15,12 L13,12 L13,11 L15,11 L15,9 L16,9 L16,11 L18,11 L18,12 Z" id="Shape"></path>
        </g>
    </g>
</svg>