<?xml version="1.0" encoding="UTF-8" standalone="no"?>
<svg width="24px" height="24px" viewBox="0 0 24 24" version="1.1" xmlns="http://www.w3.org/2000/svg" xmlns:xlink="http://www.w3.org/1999/xlink">
    <!-- Generator: Sketch 40.3 (33839) - http://www.bohemiancoding.com/sketch -->
    <title>question-mark-icon</title>
    <desc>Created with Sketch.</desc>
    <defs></defs>
    <g id="Page-1" stroke="none" stroke-width="1" fill="none" fill-rule="evenodd">
        <g id="Artboard" fill="#000000">
            <path d="M12,4 C7.582,4 4,7.582 4,12 C4,16.418 7.582,20 12,20 C16.418,20 20,16.418 20,12 C20,7.582 16.418,4 12,4 L12,4 Z M12,18 C8.691,18 6,15.308 6,12 C6,8.692 8.691,6 12,6 C15.308,6 18,8.692 18,12 C18,15.308 15.308,18 12,18 L12,18 Z M12,7 C10.516,7 9.279,8.084 9.041,9.502 C8.996,9.774 9.125,10 9.5,10 L10.5,10 C10.906,10 11,9.639 11,9.5 C11,9.224 11.224,9 11.5,9 L12.5,9 C12.776,9 13,9.224 13,9.5 L13,10.5 C13,10.776 12.776,11 12.5,11 L11.75,11 C11.125,11 11,11.447 11,12 L11,13.5 C11,13.776 11.224,14 11.5,14 L12.5,14 C12.776,14 13,13.776 13,13.5 L13,12.828 C14.164,12.416 15,11.304 15,10 C15,8.346 13.654,7 12,7 L12,7 Z M12.5,15 L11.5,15 C11.224,15 11,15.224 11,15.5 L11,16.5 C11,16.776 11.224,17 11.5,17 L12.5,17 C12.776,17 13,16.776 13,16.5 L13,15.5 C13,15.224 12.776,15 12.5,15 L12.5,15 Z" id="question-mark"></path>
        </g>
    </g>
</svg>