<?xml version="1.0" encoding="UTF-8" standalone="no"?>
<svg width="24px" height="24px" viewBox="0 0 24 24" version="1.1" xmlns="http://www.w3.org/2000/svg" xmlns:xlink="http://www.w3.org/1999/xlink">
    <!-- Generator: Sketch 40.1 (33804) - http://www.bohemiancoding.com/sketch -->
    <title>Icons/Dark/Info</title>
    <desc>Created with Sketch.</desc>
    <defs></defs>
    <g id="--Symbols" stroke="none" stroke-width="1" fill="none" fill-rule="evenodd">
        <g id="Icons/Dark/Info" fill="#495165">
            <path d="M12,17 L13.5,17 C13.6458336,17 13.7656251,16.9531248 13.8593749,16.8593749 C13.9531248,16.7656251 14,16.6458336 14,16.5 L14,15.5 C14,15.3541664 13.9531248,15.2343749 13.8593749,15.1406251 C13.7656251,15.0468752 13.6458336,15 13.5,15 L13,15 L13,11 C13,10.7291669 12.9010416,10.4947915 12.7031248,10.2968752 C12.5052085,10.0989584 12.2708331,10 12,10 L10.5,10 C10.3541664,10 10.2343749,10.0468752 10.1406251,10.1406251 C10.0468752,10.2343749 10,10.3541664 10,10.5 L10,11.5 C10,11.6458336 10.0468752,11.7656251 10.1406251,11.8593749 C10.2343749,11.9531248 10.3541664,12 10.5,12 L11,12 L11,16 C11,16.2708331 11.0989584,16.5052085 11.2968752,16.7031248 C11.4947915,16.9010416 11.7291669,17 12,17 L12,17 Z M12.5,7 L11.5,7 C11.3541664,7 11.2343749,7.0468752 11.1406251,7.14062507 C11.0468752,7.23437493 11,7.3541664 11,7.5 L11,8.5 C11,8.6458336 11.0468752,8.76562507 11.1406251,8.85937493 C11.2343749,8.9531248 11.3541664,9 11.5,9 L12.5,9 C12.6458336,9 12.7656251,8.9531248 12.8593749,8.85937493 C12.9531248,8.76562507 13,8.6458336 13,8.5 L13,7.5 C13,7.3541664 12.9531248,7.23437493 12.8593749,7.14062507 C12.7656251,7.0468752 12.6458336,7 12.5,7 L12.5,7 Z M19,4 L5,4 C4.72916693,4 4.49479147,4.0989584 4.2968752,4.2968752 C4.0989584,4.49479147 4,4.72916693 4,5 L4,19 C4,19.2708331 4.0989584,19.5052085 4.2968752,19.7031248 C4.49479147,19.9010416 4.72916693,20 5,20 L19,20 C19.2708331,20 19.5052085,19.9010416 19.7031248,19.7031248 C19.9010416,19.5052085 20,19.2708331 20,19 L20,5 C20,4.72916693 19.9010416,4.49479147 19.7031248,4.2968752 C19.5052085,4.0989584 19.2708331,4 19,4 L19,4 Z M18,18 L6,18 L6,6 L18,6 L18,18 Z" id="Shape"></path>
        </g>
    </g>
</svg>