<?xml version="1.0" encoding="UTF-8" standalone="no"?>
<svg width="24px" height="24px" viewBox="0 0 24 24" version="1.1" xmlns="http://www.w3.org/2000/svg" xmlns:xlink="http://www.w3.org/1999/xlink">
    <!-- Generator: Sketch 39.1 (31720) - http://www.bohemiancoding.com/sketch -->
    <title>Icons/Dark/License</title>
    <desc>Created with Sketch.</desc>
    <defs></defs>
    <g id="--Symbols" stroke="none" stroke-width="1" fill="none" fill-rule="evenodd">
        <g id="Icons/Dark/License" fill="#495165">
            <path d="M19,5 L5,5 C4.72916693,5 4.49479147,5.0989584 4.2968752,5.2968752 C4.0989584,5.49479147 4,5.72916693 4,6 L4,18 C4,18.2708331 4.0989584,18.5052085 4.2968752,18.7031248 C4.49479147,18.9010416 4.72916693,19 5,19 L19,19 C19.2708331,19 19.5052085,18.9010416 19.7031248,18.7031248 C19.9010416,18.5052085 20,18.2708331 20,18 L20,6 C20,5.72916693 19.9010416,5.49479147 19.7031248,5.2968752 C19.5052085,5.0989584 19.2708331,5 19,5 L19,5 Z M18,17 L6,17 L6,7 L18,7 L18,17 Z M16.5,11 L13.5,11 C13.3541664,11 13.2343749,11.0468752 13.1406251,11.1406251 C13.0468752,11.2343749 13,11.3541664 13,11.5 L13,12.5 C13,12.6458336 13.0468752,12.7656251 13.1406251,12.8593749 C13.2343749,12.9531248 13.3541664,13 13.5,13 L16.5,13 C16.6458336,13 16.7656251,12.9531248 16.8593749,12.8593749 C16.9531248,12.7656251 17,12.6458336 17,12.5 L17,11.5 C17,11.3541664 16.9531248,11.2343749 16.8593749,11.1406251 C16.7656251,11.0468752 16.6458336,11 16.5,11 L16.5,11 Z M16.5,8 L13.5,8 C13.3541664,8 13.2343749,8.0468752 13.1406251,8.14062507 C13.0468752,8.23437493 13,8.3541664 13,8.5 L13,9.5 C13,9.6458336 13.0468752,9.76562507 13.1406251,9.85937493 C13.2343749,9.9531248 13.3541664,10 13.5,10 L16.5,10 C16.6458336,10 16.7656251,9.9531248 16.8593749,9.85937493 C16.9531248,9.76562507 17,9.6458336 17,9.5 L17,8.5 C17,8.3541664 16.9531248,8.23437493 16.8593749,8.14062507 C16.7656251,8.0468752 16.6458336,8 16.5,8 L16.5,8 Z M11,12.1874997 L11,11.7187499 C11.6666667,11.3437499 12,10.7708331 12,10 C12,9.45833333 11.8020832,8.98958347 11.4062501,8.59374987 C11.0104165,8.1979168 10.5416667,8 10,8 C9.45833333,8 8.98958347,8.1979168 8.59374987,8.59374987 C8.1979168,8.98958347 8,9.45833333 8,10 C8,10.7708331 8.33333333,11.3437499 9,11.7187499 L9,12.1874997 C8.41666667,12.3958336 7.93749973,12.7552085 7.56250027,13.2656251 C7.18749973,13.7760416 7,14.3541664 7,15 L7,15.5 C7,15.6458336 7.0468752,15.7656251 7.14062507,15.8593749 C7.23437493,15.9531248 7.3541664,16 7.5,16 L12.5,16 C12.6458336,16 12.7656251,15.9531248 12.8593749,15.8593749 C12.9531248,15.7656251 13,15.6458336 13,15.5 L13,15 C13,14.3541664 12.8125003,13.7760416 12.4374997,13.2656251 C12.0625003,12.7552085 11.5833333,12.3958336 11,12.1874997 L11,12.1874997 Z" id="Shape"></path>
        </g>
    </g>
</svg>