<?xml version="1.0" encoding="UTF-8" standalone="no"?>
<svg width="24px" height="24px" viewBox="0 0 24 24" version="1.1" xmlns="http://www.w3.org/2000/svg" xmlns:xlink="http://www.w3.org/1999/xlink">
    <!-- Generator: Sketch 39.1 (31720) - http://www.bohemiancoding.com/sketch -->
    <title>Icons/Dark/List/Single</title>
    <desc>Created with Sketch.</desc>
    <defs></defs>
    <g id="--Symbols" stroke="none" stroke-width="1" fill="none" fill-rule="evenodd">
        <g id="Icons/Dark/List/Single" fill="#495165">
            <path d="M17.5,4 C17.3541664,4 17.2343749,4.0468752 17.1406251,4.14062507 C17.0468752,4.23437493 17,4.3541664 17,4.5 L17,6 L16,6 L16,4.5 C16,4.3541664 15.9531248,4.23437493 15.8593749,4.14062507 C15.7656251,4.0468752 15.6458336,4 15.5,4 L14.5,4 C14.3541664,4 14.2343749,4.0468752 14.1406251,4.14062507 C14.0468752,4.23437493 14,4.3541664 14,4.5 L14,6 L13,6 L13,4.5 C13,4.3541664 12.9531248,4.23437493 12.8593749,4.14062507 C12.7656251,4.0468752 12.6458336,4 12.5,4 L11.5,4 C11.3541664,4 11.2343749,4.0468752 11.1406251,4.14062507 C11.0468752,4.23437493 11,4.3541664 11,4.5 L11,6 L10,6 L10,4.5 C10,4.3541664 9.9531248,4.23437493 9.85937493,4.14062507 C9.76562507,4.0468752 9.6458336,4 9.5,4 L8.5,4 C8.3541664,4 8.23437493,4.0468752 8.14062507,4.14062507 C8.0468752,4.23437493 8,4.3541664 8,4.5 L8,6 L7,6 L7,4.5 C7,4.3541664 6.9531248,4.23437493 6.85937493,4.14062507 C6.76562507,4.0468752 6.6458336,4 6.5,4 L6,4 C5.72916693,4 5.49479147,4.0989584 5.2968752,4.2968752 C5.0989584,4.49479147 5,4.72916693 5,5 L5,19 C5,19.2708331 5.0989584,19.5052085 5.2968752,19.7031248 C5.49479147,19.9010416 5.72916693,20 6,20 L18,20 C18.2708331,20 18.5052085,19.9010416 18.7031248,19.7031248 C18.9010416,19.5052085 19,19.2708331 19,19 L19,5 C19,4.72916693 18.9010416,4.49479147 18.7031248,4.2968752 C18.5052085,4.0989584 18.2708331,4 18,4 L17.5,4 Z M17,18 L7,18 L7,8 L17,8 L17,18 Z M9.5,9 L8.5,9 C8.3541664,9 8.23437493,9.0468752 8.14062507,9.14062507 C8.0468752,9.23437493 8,9.3541664 8,9.5 L8,10.5 C8,10.6458336 8.0468752,10.7656251 8.14062507,10.8593749 C8.23437493,10.9531248 8.3541664,11 8.5,11 L9.5,11 C9.6458336,11 9.76562507,10.9531248 9.85937493,10.8593749 C9.9531248,10.7656251 10,10.6458336 10,10.5 L10,9.5 C10,9.3541664 9.9531248,9.23437493 9.85937493,9.14062507 C9.76562507,9.0468752 9.6458336,9 9.5,9 L9.5,9 Z M15.5,9 L11.5,9 C11.3541664,9 11.2343749,9.0468752 11.1406251,9.14062507 C11.0468752,9.23437493 11,9.3541664 11,9.5 L11,10.5 C11,10.6458336 11.0468752,10.7656251 11.1406251,10.8593749 C11.2343749,10.9531248 11.3541664,11 11.5,11 L15.5,11 C15.6458336,11 15.7656251,10.9531248 15.8593749,10.8593749 C15.9531248,10.7656251 16,10.6458336 16,10.5 L16,9.5 C16,9.3541664 15.9531248,9.23437493 15.8593749,9.14062507 C15.7656251,9.0468752 15.6458336,9 15.5,9 L15.5,9 Z M9.5,12 L8.5,12 C8.3541664,12 8.23437493,12.0468752 8.14062507,12.1406251 C8.0468752,12.2343749 8,12.3541664 8,12.5 L8,13.5 C8,13.6458336 8.0468752,13.7656251 8.14062507,13.8593749 C8.23437493,13.9531248 8.3541664,14 8.5,14 L9.5,14 C9.6458336,14 9.76562507,13.9531248 9.85937493,13.8593749 C9.9531248,13.7656251 10,13.6458336 10,13.5 L10,12.5 C10,12.3541664 9.9531248,12.2343749 9.85937493,12.1406251 C9.76562507,12.0468752 9.6458336,12 9.5,12 L9.5,12 Z M15.5,12 L11.5,12 C11.3541664,12 11.2343749,12.0468752 11.1406251,12.1406251 C11.0468752,12.2343749 11,12.3541664 11,12.5 L11,13.5 C11,13.6458336 11.0468752,13.7656251 11.1406251,13.8593749 C11.2343749,13.9531248 11.3541664,14 11.5,14 L15.5,14 C15.6458336,14 15.7656251,13.9531248 15.8593749,13.8593749 C15.9531248,13.7656251 16,13.6458336 16,13.5 L16,12.5 C16,12.3541664 15.9531248,12.2343749 15.8593749,12.1406251 C15.7656251,12.0468752 15.6458336,12 15.5,12 L15.5,12 Z M9.5,15 L8.5,15 C8.3541664,15 8.23437493,15.0468752 8.14062507,15.1406251 C8.0468752,15.2343749 8,15.3541664 8,15.5 L8,16.5 C8,16.6458336 8.0468752,16.7656251 8.14062507,16.8593749 C8.23437493,16.9531248 8.3541664,17 8.5,17 L9.5,17 C9.6458336,17 9.76562507,16.9531248 9.85937493,16.8593749 C9.9531248,16.7656251 10,16.6458336 10,16.5 L10,15.5 C10,15.3541664 9.9531248,15.2343749 9.85937493,15.1406251 C9.76562507,15.0468752 9.6458336,15 9.5,15 L9.5,15 Z M15.5,15 L11.5,15 C11.3541664,15 11.2343749,15.0468752 11.1406251,15.1406251 C11.0468752,15.2343749 11,15.3541664 11,15.5 L11,16.5 C11,16.6458336 11.0468752,16.7656251 11.1406251,16.8593749 C11.2343749,16.9531248 11.3541664,17 11.5,17 L15.5,17 C15.6458336,17 15.7656251,16.9531248 15.8593749,16.8593749 C15.9531248,16.7656251 16,16.6458336 16,16.5 L16,15.5 C16,15.3541664 15.9531248,15.2343749 15.8593749,15.1406251 C15.7656251,15.0468752 15.6458336,15 15.5,15 L15.5,15 Z" id="Shape"></path>
        </g>
    </g>
</svg>