<?xml version="1.0" encoding="UTF-8" standalone="no"?>
<svg width="24px" height="24px" viewBox="0 0 24 24" version="1.1" xmlns="http://www.w3.org/2000/svg" xmlns:xlink="http://www.w3.org/1999/xlink">
    <!-- Generator: Sketch 39.1 (31720) - http://www.bohemiancoding.com/sketch -->
    <title>Icons/Dark/List/Multi</title>
    <desc>Created with Sketch.</desc>
    <defs></defs>
    <g id="--Symbols" stroke="none" stroke-width="1" fill="none" fill-rule="evenodd">
        <g id="Icons/Dark/List/Multi" fill="#495165">
            <path d="M20.5,1 C20.3541664,1 20.2343749,1.0468752 20.1406251,1.14062507 C20.0468752,1.23437493 20,1.3541664 20,1.5 L20,3 L19,3 L19,1.5 C19,1.3541664 18.9531248,1.23437493 18.8593749,1.14062507 C18.7656251,1.0468752 18.6458336,1 18.5,1 L17.5,1 C17.3541664,1 17.2343749,1.0468752 17.1406251,1.14062507 C17.0468752,1.23437493 17,1.3541664 17,1.5 L17,3 L16,3 L16,1.5 C16,1.3541664 15.9531248,1.23437493 15.8593749,1.14062507 C15.7656251,1.0468752 15.6458336,1 15.5,1 L14.5,1 C14.3541664,1 14.2343749,1.0468752 14.1406251,1.14062507 C14.0468752,1.23437493 14,1.3541664 14,1.5 L14,3 L13,3 L13,1.5 C13,1.3541664 12.9531248,1.23437493 12.8593749,1.14062507 C12.7656251,1.0468752 12.6458336,1 12.5,1 L11.5,1 C11.3541664,1 11.2343749,1.0468752 11.1406251,1.14062507 C11.0468752,1.23437493 11,1.3541664 11,1.5 L11,3 L10,3 L10,1.5 C10,1.3541664 9.9531248,1.23437493 9.85937493,1.14062507 C9.76562507,1.0468752 9.6458336,1 9.5,1 L9,1 C8.72916693,1 8.49479147,1.0989584 8.2968752,1.2968752 C8.0989584,1.49479147 8,1.72916693 8,2 L8,16 C8,16.2708331 8.0989584,16.5052085 8.2968752,16.7031248 C8.49479147,16.9010416 8.72916693,17 9,17 L21,17 C21.2708331,17 21.5052085,16.9010416 21.7031248,16.7031248 C21.9010416,16.5052085 22,16.2708331 22,16 L22,2 C22,1.72916693 21.9010416,1.49479147 21.7031248,1.2968752 C21.5052085,1.0989584 21.2708331,1 21,1 L20.5,1 Z M20,15 L10,15 L10,5 L20,5 L20,15 Z M12.5,6 L11.5,6 C11.3541664,6 11.2343749,6.0468752 11.1406251,6.14062507 C11.0468752,6.23437493 11,6.3541664 11,6.5 L11,7.5 C11,7.6458336 11.0468752,7.76562507 11.1406251,7.85937493 C11.2343749,7.9531248 11.3541664,8 11.5,8 L12.5,8 C12.6458336,8 12.7656251,7.9531248 12.8593749,7.85937493 C12.9531248,7.76562507 13,7.6458336 13,7.5 L13,6.5 C13,6.3541664 12.9531248,6.23437493 12.8593749,6.14062507 C12.7656251,6.0468752 12.6458336,6 12.5,6 L12.5,6 Z M18.5,6 L14.5,6 C14.3541664,6 14.2343749,6.0468752 14.1406251,6.14062507 C14.0468752,6.23437493 14,6.3541664 14,6.5 L14,7.5 C14,7.6458336 14.0468752,7.76562507 14.1406251,7.85937493 C14.2343749,7.9531248 14.3541664,8 14.5,8 L18.5,8 C18.6458336,8 18.7656251,7.9531248 18.8593749,7.85937493 C18.9531248,7.76562507 19,7.6458336 19,7.5 L19,6.5 C19,6.3541664 18.9531248,6.23437493 18.8593749,6.14062507 C18.7656251,6.0468752 18.6458336,6 18.5,6 L18.5,6 Z M12.5,9 L11.5,9 C11.3541664,9 11.2343749,9.0468752 11.1406251,9.14062507 C11.0468752,9.23437493 11,9.3541664 11,9.5 L11,10.5 C11,10.6458336 11.0468752,10.7656251 11.1406251,10.8593749 C11.2343749,10.9531248 11.3541664,11 11.5,11 L12.5,11 C12.6458336,11 12.7656251,10.9531248 12.8593749,10.8593749 C12.9531248,10.7656251 13,10.6458336 13,10.5 L13,9.5 C13,9.3541664 12.9531248,9.23437493 12.8593749,9.14062507 C12.7656251,9.0468752 12.6458336,9 12.5,9 L12.5,9 Z M18.5,9 L14.5,9 C14.3541664,9 14.2343749,9.0468752 14.1406251,9.14062507 C14.0468752,9.23437493 14,9.3541664 14,9.5 L14,10.5 C14,10.6458336 14.0468752,10.7656251 14.1406251,10.8593749 C14.2343749,10.9531248 14.3541664,11 14.5,11 L18.5,11 C18.6458336,11 18.7656251,10.9531248 18.8593749,10.8593749 C18.9531248,10.7656251 19,10.6458336 19,10.5 L19,9.5 C19,9.3541664 18.9531248,9.23437493 18.8593749,9.14062507 C18.7656251,9.0468752 18.6458336,9 18.5,9 L18.5,9 Z M12.5,12 L11.5,12 C11.3541664,12 11.2343749,12.0468752 11.1406251,12.1406251 C11.0468752,12.2343749 11,12.3541664 11,12.5 L11,13.5 C11,13.6458336 11.0468752,13.7656251 11.1406251,13.8593749 C11.2343749,13.9531248 11.3541664,14 11.5,14 L12.5,14 C12.6458336,14 12.7656251,13.9531248 12.8593749,13.8593749 C12.9531248,13.7656251 13,13.6458336 13,13.5 L13,12.5 C13,12.3541664 12.9531248,12.2343749 12.8593749,12.1406251 C12.7656251,12.0468752 12.6458336,12 12.5,12 L12.5,12 Z M4,21 L4,7 L3,7 C2.44386482,7 2,7.4481055 2,8.00087166 L2,21.9991283 C2,22.2771426 2.11184341,22.5272757 2.2926861,22.7079476 C2.47314781,22.8890337 2.72277345,23 2.99850233,23 L14.0014977,23 C14.5525106,23 15,22.5522847 15,22 L15,21 L4,21 Z M7,18 L7,4 L6,4 C5.44386482,4 5,4.4481055 5,5.00087166 L5,18.9991283 C5,19.2771426 5.11184341,19.5272757 5.2926861,19.7079476 C5.47314781,19.8890337 5.72277345,20 5.99850233,20 L17.0014977,20 C17.5525106,20 18,19.5522847 18,19 L18,18 L7,18 Z M18.5,12 L14.5,12 C14.3541664,12 14.2343749,12.0468752 14.1406251,12.1406251 C14.0468752,12.2343749 14,12.3541664 14,12.5 L14,13.5 C14,13.6458336 14.0468752,13.7656251 14.1406251,13.8593749 C14.2343749,13.9531248 14.3541664,14 14.5,14 L18.5,14 C18.6458336,14 18.7656251,13.9531248 18.8593749,13.8593749 C18.9531248,13.7656251 19,13.6458336 19,13.5 L19,12.5 C19,12.3541664 18.9531248,12.2343749 18.8593749,12.1406251 C18.7656251,12.0468752 18.6458336,12 18.5,12 Z" id="Combined-Shape"></path>
        </g>
    </g>
</svg>