<?xml version="1.0" encoding="UTF-8" standalone="no"?>
<svg width="24px" height="24px" viewBox="0 0 24 24" version="1.1" xmlns="http://www.w3.org/2000/svg" xmlns:xlink="http://www.w3.org/1999/xlink">
    <!-- Generator: Sketch 39.1 (31720) - http://www.bohemiancoding.com/sketch -->
    <title>Icons/Dark/Location</title>
    <desc>Created with Sketch.</desc>
    <defs></defs>
    <g id="--Symbols" stroke="none" stroke-width="1" fill="none" fill-rule="evenodd">
        <g id="Icons/Dark/Location" fill="#495165">
            <path d="M12,4 C10.3333333,4 8.91666667,4.59374987 7.75,5.78125013 C6.58333333,6.96874987 6,8.3958336 6,10.0625003 C6,11.0625003 6.21874987,12.1041664 6.65625013,13.1874997 C7.09374987,14.2708331 7.66145813,15.2656251 8.35937493,16.1718752 C9.05729173,17.0781248 9.65625013,17.8072917 10.1562501,18.3593749 C10.6562501,18.9114581 11.1458336,19.4062501 11.625,19.8437499 C11.7291669,19.9479168 11.8541664,20 12,20 C12.1458336,20 12.2708331,19.9479168 12.375,19.8437499 C12.8541664,19.4062501 13.3437499,18.9114581 13.8437499,18.3593749 C14.3437499,17.8072917 14.9427083,17.0781248 15.6406251,16.1718752 C16.3385419,15.2656251 16.9062501,14.2708331 17.3437499,13.1874997 C17.7812501,12.1041664 18,11.0625003 18,10.0625003 C18,8.3958336 17.4166667,6.96874987 16.25,5.78125013 C15.0833333,4.59374987 13.6666667,4 12,4 L12,4 Z M12,17.4374997 C10.8333333,16.25 9.86979147,15.0052085 9.10937493,13.7031248 C8.3489584,12.4010416 7.96874987,11.1874997 7.96874987,10.0625003 C7.96874987,8.93749973 8.36458347,7.97916693 9.15625013,7.18749973 C9.9479168,6.3958336 10.8958336,6 12,6 C13.1041664,6 14.0520832,6.3958336 14.8437499,7.18749973 C15.6354165,7.97916693 16.0312501,8.93749973 16.0312501,10.0625003 C16.0312501,11.1874997 15.6510416,12.4010416 14.8906251,13.7031248 C14.1302085,15.0052085 13.1666667,16.25 12,17.4374997 L12,17.4374997 Z M10,10 C10,10.5416667 10.1979168,11.0104165 10.5937499,11.4062501 C10.9895835,11.8020832 11.4583333,12 12,12 C12.5416667,12 13.0104165,11.8020832 13.4062501,11.4062501 C13.8020832,11.0104165 14,10.5416667 14,10 C14,9.45833333 13.8020832,8.98958347 13.4062501,8.59374987 C13.0104165,8.1979168 12.5416667,8 12,8 C11.4583333,8 10.9895835,8.1979168 10.5937499,8.59374987 C10.1979168,8.98958347 10,9.45833333 10,10 L10,10 Z" id="Shape-Copy"></path>
        </g>
    </g>
</svg>