<?xml version="1.0" encoding="UTF-8" standalone="no"?>
<svg width="24px" height="24px" viewBox="0 0 24 24" version="1.1" xmlns="http://www.w3.org/2000/svg" xmlns:xlink="http://www.w3.org/1999/xlink">
    <!-- Generator: Sketch 41 (35326) - http://www.bohemiancoding.com/sketch -->
    <title>Icons/Dark/Minus</title>
    <desc>Created with Sketch.</desc>
    <defs></defs>
    <g id="--Symbols" stroke="none" stroke-width="1" fill="none" fill-rule="evenodd">
        <g id="Icons/Dark/Minus" fill="#495165">
            <path d="M12,4 C9.79166667,4 7.90625013,4.78125013 6.34374987,6.34374987 C4.78125013,7.90625013 4,9.79166667 4,12 C4,14.2083333 4.78125013,16.0937499 6.34374987,17.6562501 C7.90625013,19.2187499 9.79166667,20 12,20 C14.2083333,20 16.0937499,19.2187499 17.6562501,17.6562501 C19.2187499,16.0937499 20,14.2083333 20,12 C20,9.79166667 19.2187499,7.90625013 17.6562501,6.34374987 C16.0937499,4.78125013 14.2083333,4 12,4 Z M14.875,13 L9.125,13 C8.8541664,13 8.625,12.9010416 8.43749973,12.7031248 C8.25,12.5052085 8.15625013,12.2708331 8.15625013,12 C8.15625013,11.7291669 8.25,11.4947915 8.43749973,11.2968752 C8.625,11.0989584 8.8541664,11 9.125,11 L14.875,11 C15.1458336,11 15.375,11.0989584 15.5625003,11.2968752 C15.75,11.4947915 15.8437499,11.7291669 15.8437499,12 C15.8437499,12.2708331 15.75,12.5052085 15.5625003,12.7031248 C15.375,12.9010416 15.1458336,13 14.875,13 Z" id="Shape"></path>
        </g>
    </g>
</svg>