<?xml version="1.0" encoding="UTF-8" standalone="no"?>
<svg width="24px" height="24px" viewBox="0 0 24 24" version="1.1" xmlns="http://www.w3.org/2000/svg" xmlns:xlink="http://www.w3.org/1999/xlink">
    <!-- Generator: Sketch 39.1 (31720) - http://www.bohemiancoding.com/sketch -->
    <title>Icons/Dark/Promo</title>
    <desc>Created with Sketch.</desc>
    <defs></defs>
    <g id="--Symbols" stroke="none" stroke-width="1" fill="none" fill-rule="evenodd">
        <g id="Icons/Dark/Promo" fill="#495165">
            <path d="M12.0937499,4 C11.7604165,4 11.4687499,4.11458347 11.2187499,4.34374987 L4.28125013,11.2812501 C4.09374987,11.4895835 4,11.7291669 4,12 C4,12.2708331 4.09374987,12.5104165 4.28125013,12.7187499 L11.2812501,19.7187499 C11.4895829,19.9062501 11.7291664,20 12,20 C12.2708331,20 12.5104165,19.9062501 12.7187499,19.7187499 L19.6562496,12.7812501 C19.8854165,12.5312501 20,12.2395835 20,11.9062501 L20,5 C20,4.72916693 19.9010416,4.49479147 19.7031248,4.2968752 C19.505208,4.0989584 19.2708331,4 19,4 L12.0937499,4 Z M18,11.5937499 L12,17.5937499 L6.4062496,12 L12.4062496,6 L18,6 L18,11.5937499 Z M14,11 L15,11 C15.2708331,11 15.505208,10.9010416 15.7031248,10.7031248 C15.9010416,10.5052085 16,10.2708331 16,10 L16,9 C16,8.72916693 15.9010416,8.49479147 15.7031248,8.2968752 C15.505208,8.0989584 15.2708331,8 15,8 L14,8 C13.7291664,8 13.4947915,8.0989584 13.2968747,8.2968752 C13.0989584,8.49479147 13,8.72916693 13,9 L13,10 C13,10.2708331 13.0989584,10.5052085 13.2968747,10.7031248 C13.4947915,10.9010416 13.7291664,11 14,11 L14,11 Z" id="Shape"></path>
        </g>
    </g>
</svg>