<?xml version="1.0" encoding="UTF-8" standalone="no"?>
<svg width="24px" height="24px" viewBox="0 0 24 24" version="1.1" xmlns="http://www.w3.org/2000/svg" xmlns:xlink="http://www.w3.org/1999/xlink">
    <!-- Generator: Sketch 40.1 (33804) - http://www.bohemiancoding.com/sketch -->
    <title>Icons/Dark/Reviews</title>
    <desc>Created with Sketch.</desc>
    <defs></defs>
    <g id="--Symbols" stroke="none" stroke-width="1" fill="none" fill-rule="evenodd">
        <g id="Icons/Dark/Reviews" fill="#495165">
            <path d="M5,8 C4.72916693,8 4.49479147,8.0989584 4.2968752,8.2968752 C4.0989584,8.49479147 4,8.72916693 4,9 L4,17 C4,17.2708331 4.0989584,17.5052085 4.2968752,17.7031248 C4.49479147,17.9010416 4.72916693,18 5,18 L8,18 L10.625,19.7187499 C10.8958336,19.9062501 11.1979168,20 11.5312501,20 L13.5,20 C13.6458336,20 13.7656251,19.9531248 13.8593749,19.8593749 C13.9531248,19.7656251 14,19.6458336 14,19.5 L14,18 L15,18 C15.2708331,18 15.5052085,17.9010416 15.7031248,17.7031248 C15.9010416,17.5052085 16,17.2708331 16,17 L16,9 C16,8.72916693 15.9010416,8.49479147 15.7031248,8.2968752 C15.5052085,8.0989584 15.2708331,8 15,8 L5,8 Z M14,16 L12,16 L12,18 L9,16 L6,16 L6,10 L14,10 L14,16 Z M9,4 C8.72916693,4 8.49479147,4.0989584 8.2968752,4.2968752 C8.0989584,4.49479147 8,4.72916693 8,5 L8,7 L10,7 L10,6 L17.5,6 C17.6458336,6 17.7656251,6.0468752 17.8593749,6.14062507 C17.9531248,6.23437493 18,6.3541664 18,6.5 L18,12 L17,12 L17,14 L18,14 L19,14 C19.2708331,14 19.5052085,13.9010416 19.7031248,13.7031248 C19.9010416,13.5052085 20,13.2708331 20,13 L20,5 C20,4.72916693 19.9010416,4.49479147 19.7031248,4.2968752 C19.5052085,4.0989584 19.2708331,4 19,4 L9,4 Z" id="Shape"></path>
        </g>
    </g>
</svg>