<?xml version="1.0" encoding="UTF-8" standalone="no"?>
<svg width="24px" height="24px" viewBox="0 0 24 24" version="1.1" xmlns="http://www.w3.org/2000/svg" xmlns:xlink="http://www.w3.org/1999/xlink">
    <!-- Generator: Sketch 40.3 (33839) - http://www.bohemiancoding.com/sketch -->
    <title>Icons/Dark/Return</title>
    <desc>Created with Sketch.</desc>
    <defs></defs>
    <g id="--Symbols" stroke="none" stroke-width="1" fill="none" fill-rule="evenodd">
        <g id="Icons/Dark/Return" fill="#495165">
            <path d="M19.2187499,5.25 L17.875,6.59374987 C17.7916667,6.51041653 17.7187499,6.4270832 17.6562501,6.34374987 C16.0729168,4.78125013 14.1874997,4 12,4 C9.79166667,4 7.90625013,4.78125013 6.34374987,6.34374987 C4.78125013,7.90625013 4,9.79166667 4,12 C4,14.2083333 4.78125013,16.0937499 6.34374987,17.6562501 C7.90625013,19.2187499 9.79166667,20 12,20 C13.7916667,20 15.3906251,19.4739584 16.7968752,18.4218752 C18.2031248,17.3697915 19.1562501,15.9895835 19.6562501,14.2812501 C19.7395835,14.0104165 19.7187499,13.7552085 19.5937499,13.5156251 C19.4687499,13.2760416 19.2708331,13.1197915 19,13.0468752 C18.7291669,12.9739584 18.4739584,13 18.2343749,13.125 C17.9947915,13.25 17.8333333,13.4479168 17.75,13.7187499 C17.375,14.9895835 16.6562501,16.0208331 15.5937499,16.8125003 C14.5312501,17.6041664 13.3333333,18 12,18 C10.3541664,18 8.94270827,17.4114581 7.76562507,16.2343749 C6.58854187,15.0572917 6,13.6458336 6,12 C6,10.3541664 6.58854187,8.94270827 7.76562507,7.76562507 C8.94270827,6.58854187 10.3541664,6 12,6 C13.6458336,6 15.0625003,6.58333333 16.25,7.75 L16.4374997,8.03125013 L14.25,10.2187499 C14.0416667,10.4479168 13.9687499,10.6354165 14.0312501,10.7812501 C14.0937499,10.9270832 14.2708331,11 14.5625003,11 L19.4687499,11 C19.6145835,11 19.7395835,10.9479168 19.8437499,10.8437499 C19.9479168,10.7395835 20,10.6145835 20,10.4687499 L20,5.56250027 C20,5.27083307 19.9270832,5.09374987 19.7812501,5.03125013 C19.6354165,4.96874987 19.4479168,5.04166667 19.2187499,5.25 L19.2187499,5.25 Z" id="Shape"></path>
        </g>
    </g>
</svg>