<?xml version="1.0" encoding="UTF-8" standalone="no"?>
<svg width="24px" height="24px" viewBox="0 0 24 24" version="1.1" xmlns="http://www.w3.org/2000/svg" xmlns:xlink="http://www.w3.org/1999/xlink">
    <!-- Generator: Sketch 40.1 (33804) - http://www.bohemiancoding.com/sketch -->
    <title>Icons/Dark/RSS</title>
    <desc>Created with Sketch.</desc>
    <defs></defs>
    <g id="--Symbols" stroke="none" stroke-width="1" fill="none" fill-rule="evenodd">
        <g id="Icons/Dark/RSS" fill="#495165">
            <path d="M19,4 L5,4 C4.72916693,4 4.49479147,4.0989584 4.2968752,4.2968752 C4.0989584,4.49479147 4,4.72916693 4,5 L4,19 C4,19.2708331 4.0989584,19.5052085 4.2968752,19.7031248 C4.49479147,19.9010416 4.72916693,20 5,20 L19,20 C19.2708331,20 19.5052085,19.9010416 19.7031248,19.7031248 C19.9010416,19.5052085 20,19.2708331 20,19 L20,5 C20,4.72916693 19.9010416,4.49479147 19.7031248,4.2968752 C19.5052085,4.0989584 19.2708331,4 19,4 L19,4 Z M8.5,17 C8.08333333,17 7.72916693,16.8541664 7.43749973,16.5625003 C7.1458336,16.2708331 7,15.9166667 7,15.5 C7,15.0833333 7.1458336,14.7291669 7.43749973,14.4374997 C7.72916693,14.1458336 8.08333333,14 8.5,14 C8.91666667,14 9.27083307,14.1458336 9.56250027,14.4374997 C9.8541664,14.7291669 10,15.0833333 10,15.5 C10,15.9166667 9.8541664,16.2708331 9.56250027,16.5625003 C9.27083307,16.8541664 8.91666667,17 8.5,17 L8.5,17 Z M12,17 C12,15.8125003 11.4895835,14.7083333 10.4687499,13.6874997 C10.0520832,13.2708331 9.50520853,12.9374997 8.8281248,12.6874997 C8.1510416,12.4374997 7.54166667,12.3125003 7,12.3125003 L7,10.4062501 C8.81250027,10.4062501 10.3645835,11.0520832 11.6562501,12.3437499 C12.9479168,13.6354165 13.5937499,15.1874997 13.5937499,17 L12,17 Z M15.0937499,17 C15.0937499,15.6874997 14.6979168,14.4010416 13.9062501,13.1406251 C13.1145835,11.8802085 12.0937499,10.8593749 10.8437499,10.0781248 C9.59374987,9.2968752 8.31250027,8.90625013 7,8.90625013 L7,7 C9.75,7 12.1041664,7.97916693 14.0625003,9.93749973 C16.0208331,11.8958336 17,14.25 17,17 L15.0937499,17 Z" id="Shape"></path>
        </g>
    </g>
</svg>