<?xml version="1.0" encoding="UTF-8" standalone="no"?>
<svg width="24px" height="24px" viewBox="0 0 24 24" version="1.1" xmlns="http://www.w3.org/2000/svg" xmlns:xlink="http://www.w3.org/1999/xlink">
    <!-- Generator: Sketch 40 (33762) - http://www.bohemiancoding.com/sketch -->
    <title>Icons/Dark/Search</title>
    <desc>Created with Sketch.</desc>
    <defs></defs>
    <g id="--Symbols" stroke="none" stroke-width="1" fill="none" fill-rule="evenodd">
        <g id="Icons/Dark/Search" fill="#495165">
            <path d="M19.2116934,17.8205646 L16.1874999,14.8266126 C17.0947582,13.6169352 17.5483871,12.266129 17.5483871,10.7741935 C17.5483871,8.89919381 16.8881048,7.3014111 15.5675401,5.98084697 C14.246976,4.66028232 12.6491933,4 10.7741935,4 C8.89919381,4 7.3014111,4.66028232 5.98084697,5.98084697 C4.66028232,7.3014111 4,8.89919381 4,10.7741935 C4,12.6491933 4.66028232,14.246976 5.98084697,15.5675401 C7.3014111,16.8881048 8.89919381,17.5483871 10.7741935,17.5483871 C12.266129,17.5483871 13.6169352,17.0947582 14.8266126,16.1874999 L17.8205646,19.2116934 C18.0221775,19.3931453 18.2540325,19.483871 18.516129,19.483871 C18.7782255,19.483871 19.0050405,19.3881048 19.1965724,19.1965724 C19.3881048,19.0050405 19.483871,18.7782255 19.483871,18.516129 C19.483871,18.2540325 19.3931453,18.0221775 19.2116934,17.8205646 L19.2116934,17.8205646 Z M10.7741935,15.6129032 C9.44354839,15.6129032 8.30443561,15.1391128 7.35685471,14.1915324 C6.40927432,13.2439515 5.93548387,12.1048387 5.93548387,10.7741935 C5.93548387,9.44354839 6.40927432,8.30443561 7.35685471,7.35685471 C8.30443561,6.40927432 9.44354839,5.93548387 10.7741935,5.93548387 C12.1048387,5.93548387 13.2439515,6.40927432 14.1915324,7.35685471 C15.1391128,8.30443561 15.6129032,9.44354839 15.6129032,10.7741935 C15.6129032,12.1048387 15.1391128,13.2439515 14.1915324,14.1915324 C13.2439515,15.1391128 12.1048387,15.6129032 10.7741935,15.6129032 L10.7741935,15.6129032 Z" id="Shape"></path>
        </g>
    </g>
</svg>