<?xml version="1.0" encoding="UTF-8" standalone="no"?>
<svg width="24px" height="24px" viewBox="0 0 24 24" version="1.1" xmlns="http://www.w3.org/2000/svg" xmlns:xlink="http://www.w3.org/1999/xlink">
    <!-- Generator: Sketch 39.1 (31720) - http://www.bohemiancoding.com/sketch -->
    <title>Icons/Dark/Settings</title>
    <desc>Created with Sketch.</desc>
    <defs></defs>
    <g id="--Symbols" stroke="none" stroke-width="1" fill="none" fill-rule="evenodd">
        <g id="Icons/Dark/Settings" fill="#495165">
            <path d="M17.998,11 C17.445,11 16.918,10.557 16.707,10.048 C16.497,9.54 16.557,8.854 16.947,8.463 L17.654,7.757 C18.045,7.366 18.045,6.733 17.655,6.342 C17.264,5.951 16.631,5.951 16.24,6.342 C16.24,6.342 15.924,6.658 15.533,7.049 C15.142,7.44 14.457,7.5 13.949,7.29 C13.442,7.08 12.998,6.553 12.998,6 L12.998,5 C12.998,4.447 12.551,4 11.998,4 C11.445,4 10.998,4.447 10.998,5 L10.998,6 C10.998,6.553 10.556,7.08 10.048,7.291 C9.54,7.502 8.856,7.441 8.465,7.051 L7.756,6.344 C7.365,5.953 6.732,5.954 6.343,6.344 C5.952,6.734 5.952,7.367 6.342,7.758 L7.051,8.466 C7.441,8.856 7.51,9.545 7.338,10.062 C7.168,10.58 6.648,11.016 6.097,11.01 L5,11 C4.448,11 4,11.449 4,12 C4,12.553 4.448,13 5,13 L6.001,13 C6.553,13 7.088,13.438 7.332,13.925 C7.577,14.411 7.52,15.084 7.125,15.471 L6.342,16.241 C5.951,16.632 5.952,17.266 6.342,17.655 C6.733,18.046 7.366,18.046 7.756,17.656 L8.464,16.948 C8.855,16.557 9.539,16.497 10.048,16.708 C10.556,16.919 10.998,17.446 10.998,17.999 L10.998,19 C10.998,19.552 11.446,20 11.998,19.999 C12.551,19.999 12.998,19.552 12.998,19 L12.998,17.999 C12.998,17.446 13.442,16.919 13.949,16.71 C14.457,16.499 15.142,16.56 15.533,16.95 L16.24,17.657 C16.631,18.048 17.264,18.048 17.653,17.657 C18.044,17.266 18.045,16.633 17.655,16.243 L16.947,15.535 C16.556,15.144 16.496,14.459 16.707,13.951 C16.918,13.443 17.445,13 17.998,13 L18.998,13 C19.551,13 19.998,12.553 19.998,12 C19.998,11.447 19.551,11 18.998,11 L17.998,11 L17.998,11 Z M11.998,14 C10.895,14 9.998,13.103 9.998,12 C9.998,10.897 10.895,10 11.998,10 C13.101,10 13.998,10.897 13.998,12 C13.998,13.103 13.101,14 11.998,14 L11.998,14 Z" id="Settings_1_x2C__Gear_1-Copy"></path>
        </g>
    </g>
</svg>