<?xml version="1.0" encoding="UTF-8" standalone="no"?>
<svg width="24px" height="24px" viewBox="0 0 24 24" version="1.1" xmlns="http://www.w3.org/2000/svg" xmlns:xlink="http://www.w3.org/1999/xlink">
    <!-- Generator: Sketch 40.1 (33804) - http://www.bohemiancoding.com/sketch -->
    <title>Icons/Dark/Star Outline</title>
    <desc>Created with Sketch.</desc>
    <defs></defs>
    <g id="--Symbols" stroke="none" stroke-width="1" fill="none" fill-rule="evenodd">
        <g id="Icons/Dark/Star-Outline" fill="#495165">
            <path d="M16.4367463,19.9035494 L12,17.4664635 L7.56325372,19.9035494 C7.35495523,20.0285281 7.18310974,20.0441506 7.0477162,19.9504166 C6.91232213,19.8566827 6.86545542,19.6744219 6.90711501,19.4036343 L7.78196645,14.2482596 L4.22007106,10.6238751 C4.03260317,10.4364072 3.9649064,10.2645612 4.01698075,10.1083381 C4.06905511,9.95211454 4.22007106,9.85317294 4.47002862,9.81151335 L9.37544571,9.06164069 L11.5938188,4.34369203 C11.7187976,4.11456401 11.8541912,4 12,4 C12.1458088,4 12.2812024,4.11456401 12.4061812,4.34369203 L14.6245543,9.06164069 L19.5299714,9.81151335 C19.7799289,9.85317294 19.9309449,9.95211454 19.9830192,10.1083381 C20.0350936,10.2645612 19.9673968,10.4364072 19.7799289,10.6238751 L16.2180336,14.2482596 L17.092885,19.4036343 C17.1345446,19.6744219 17.0876779,19.8566827 16.9522838,19.9504166 C16.8168903,20.0441506 16.6450448,20.0285281 16.4367463,19.9035494 L16.4367463,19.9035494 Z M7.40703012,11.248769 L9.71913721,13.5921215 L9.18797727,16.9040587 L12,15.3418243 L14.8120227,16.9040587 L14.2808628,13.5921215 L16.5929699,11.248769 L13.4060114,10.7800987 L12,7.81185293 L10.5939886,10.7800987 L7.40703012,11.248769 Z" id="Shape"></path>
        </g>
    </g>
</svg>