<?xml version="1.0" encoding="UTF-8" standalone="no"?>
<svg width="24px" height="24px" viewBox="0 0 24 24" version="1.1" xmlns="http://www.w3.org/2000/svg" xmlns:xlink="http://www.w3.org/1999/xlink">
    <!-- Generator: Sketch 40.1 (33804) - http://www.bohemiancoding.com/sketch -->
    <title>Icons/Dark/Twitter</title>
    <desc>Created with Sketch.</desc>
    <defs></defs>
    <g id="--Symbols" stroke="none" stroke-width="1" fill="none" fill-rule="evenodd">
        <g id="Icons/Dark/Twitter" fill="#495165">
            <path d="M19,4 L5,4 C4.72916693,4 4.49479147,4.0989584 4.2968752,4.2968752 C4.0989584,4.49479147 4,4.72916693 4,5 L4,19 C4,19.2708331 4.0989584,19.5052085 4.2968752,19.7031248 C4.49479147,19.9010416 4.72916693,20 5,20 L19,20 C19.2708331,20 19.5052085,19.9010416 19.7031248,19.7031248 C19.9010416,19.5052085 20,19.2708331 20,19 L20,5 C20,4.72916693 19.9010416,4.49479147 19.7031248,4.2968752 C19.5052085,4.0989584 19.2708331,4 19,4 L19,4 Z M16,10 L16,10.25 C16,11.1874997 15.7864581,12.0833333 15.3593749,12.9374997 C14.9322917,13.7916667 14.2708331,14.5156251 13.375,15.1093749 C12.4791669,15.7031248 11.4374997,16 10.25,16 C9.1458336,16 8.11458347,15.6979168 7.15625013,15.0937499 C7.3229168,15.1145835 7.48958347,15.125 7.65625013,15.125 C8.59374987,15.125 9.43749973,14.8333333 10.1874997,14.25 C9.75,14.25 9.35937493,14.1197915 9.01562507,13.8593749 C8.6718752,13.5989584 8.43749973,13.2604165 8.31250027,12.8437499 C8.43749973,12.8854165 8.58333333,12.9062501 8.75,12.9062501 C9,12.9062501 9.21874987,12.875 9.40625013,12.8125003 C8.9479168,12.7291669 8.5989584,12.5052085 8.35937493,12.1406251 C8.11979147,11.7760416 8,11.3437499 8,10.8437499 L8,10.8125003 C8,10.9583333 8.22916693,11.0416667 8.68749973,11.0625003 C7.93749973,10.5625003 7.56250027,10 7.56250027,9.375 C7.56250027,9.02083307 7.65625013,8.68749973 7.84374987,8.375 C8.9270832,9.68749973 10.3125003,10.3854165 12,10.4687499 C11.9583333,10.3229168 11.9374997,10.1770832 11.9374997,10.0312501 C11.9374997,9.46874987 12.1354165,8.98958347 12.5312501,8.59374987 C12.9270832,8.1979168 13.4062501,8 13.9687499,8 C14.5520832,8 15.0416667,8.20833333 15.4374997,8.625 C15.8958336,8.54166667 16.3229168,8.38541653 16.7187499,8.15625013 C16.5729168,8.63541653 16.2812501,9.01041653 15.8437499,9.28125013 C16.2395835,9.21874987 16.625,9.1041664 17,8.93749973 C16.7291669,9.3541664 16.3958336,9.70833333 16,10 L16,10 Z" id="Shape"></path>
        </g>
    </g>
</svg>