<?xml version="1.0" encoding="UTF-8" standalone="no"?>
<svg width="24px" height="24px" viewBox="0 0 24 24" version="1.1" xmlns="http://www.w3.org/2000/svg" xmlns:xlink="http://www.w3.org/1999/xlink">
    <!-- Generator: Sketch 40.1 (33804) - http://www.bohemiancoding.com/sketch -->
    <title>Icons/Dark/Delete</title>
    <desc>Created with Sketch.</desc>
    <defs></defs>
    <g id="--Symbols" stroke="none" stroke-width="1" fill="none" fill-rule="evenodd">
        <g id="Icons/Dark/Delete" fill="#495165">
            <path d="M17.7466408,15.6276392 L14.06142,11.988483 L17.7466408,8.34932768 C18.0844531,8.01151617 18.0844531,7.65834898 17.7466408,7.28982689 L16.68714,6.27639156 C16.3493285,5.90786948 15.9961613,5.90786948 15.6276392,6.27639156 L11.9884838,9.91554692 L8.34932847,6.27639156 C8.01151617,5.90786948 7.65834898,5.90786948 7.28982689,6.27639156 L6.27639156,7.28982689 C5.90786948,7.65834898 5.90786948,8.01151617 6.27639156,8.34932768 L9.91554692,11.988483 L6.27639156,15.6276392 C5.90786948,15.9961613 5.90786948,16.3493285 6.27639156,16.68714 L7.28982689,17.7466408 C7.65834898,18.0844531 8.01151617,18.0844531 8.34932847,17.7466408 L11.9884838,14.06142 L15.6276392,17.7466408 C15.9961613,18.0844531 16.3493285,18.0844531 16.68714,17.7466408 L17.7466408,16.68714 C18.0844531,16.3493285 18.0844531,15.9961613 17.7466408,15.6276392 L17.7466408,15.6276392 Z" id="Shape"></path>
        </g>
    </g>
</svg>