<?xml version="1.0" encoding="UTF-8"?>
<svg width="24px" height="23px" viewBox="0 0 24 23" version="1.1" xmlns="http://www.w3.org/2000/svg" xmlns:xlink="http://www.w3.org/1999/xlink">
    <!-- Generator: Sketch 43.2 (39069) - http://www.bohemiancoding.com/sketch -->
    <title>icon-account</title>
    <desc>Created with Sketch.</desc>
    <defs></defs>
    <g id="Page-1" stroke="none" stroke-width="1" fill="none" fill-rule="evenodd">
        <g id="icon-account">
            <g id="Outline_Icons_1_" transform="translate(0.000000, 1.000000)" stroke="#2893FF" stroke-linejoin="round">
                <g id="Outline_Icons">
                    <g id="Group">
                        <polyline id="Shape" points="14.5 4.5 23.5 4.5 23.5 21.5 0.5 21.5 0.5 4.5 9.5 4.5"></polyline>
                        <circle id="Oval" cx="7" cy="13.5" r="2"></circle>
                        <path d="M7,15.5 C4.5,15.5 3.5,17 3.5,18.5 L10.5,18.5 C10.5,17 9.5,15.5 7,15.5 Z" id="Shape"></path>
                        <path d="M14.5,6.5 L9.5,6.5 L9.5,2.5 C9.5,1.125 10.625,0 12,0 C13.375,0 14.5,1.125 14.5,2.5 L14.5,6.5 Z" id="Shape"></path>
                        <path d="M0.5,8.5 L23.5,8.5" id="Shape"></path>
                        <path d="M13,17.5 L21,17.5" id="Shape"></path>
                        <path d="M13,15.5 L21,15.5" id="Shape"></path>
                        <path d="M13,13.5 L21,13.5" id="Shape"></path>
                        <path d="M13,11.5 L17,11.5" id="Shape"></path>
                        <path d="M12.5,2.495 C12.5,2.771 12.276,2.995 12,2.995 L12,2.995 C11.724,2.995 11.5,2.771 11.5,2.495 L11.5,2.495 C11.5,2.219 11.724,1.995 12,1.995 L12,1.995 C12.276,1.995 12.5,2.219 12.5,2.495 L12.5,2.495 Z" id="Shape"></path>
                    </g>
                </g>
            </g>
            <g id="Invisible_Shape">
                <rect id="Rectangle-path" x="0" y="0" width="24" height="24"></rect>
            </g>
        </g>
    </g>
</svg>