<?xml version="1.0" encoding="UTF-8" standalone="no"?>
<svg width="728px" height="115px" viewBox="0 0 728 115" version="1.1" xmlns="http://www.w3.org/2000/svg" xmlns:xlink="http://www.w3.org/1999/xlink">
    <!-- Generator: Sketch 40.1 (33804) - http://www.bohemiancoding.com/sketch -->
    <title>Artboard</title>
    <desc>Created with Sketch.</desc>
    <defs></defs>
    <g id="Page-1" stroke="none" stroke-width="1" fill="none" fill-rule="evenodd">
        <g id="Artboard">
            <g id="logo-matix-rev">
                <g id="Page-1">
                    <g id="logo-matix">
                        <g id="Group" fill="#2893FF">
                            <path d="M169,55.5 C166.3,48.8 163.7,42.3 161,35.7 C160,33.2 159,30.6 157,28.6 C154.1,25.5 150.1,24.9 146.5,27.3 C144.5,28.6 143.1,30.6 142.2,32.7 C140.2,37.5 138.3,42.3 136.4,47.2 C134.2,52.7 132,58.2 129.8,63.8 C126.4,72.2 123.1,80.5 119.7,88.9 C117.6,94 115.9,99.2 112.8,103.8 C110.5,107.3 107.6,110.3 103.9,112.2 C96.6,115.9 88.1,114.8 81.9,109.3 C77.5,105.5 74.6,100.7 72.5,95.4 C70.5,90.3 68.4,85.2 66.3,80 C62.7,71.2 59.2,62.4 55.6,53.6 C53.8,49.3 57.3,48.5 58.1,50.4 C58.8,51.8 60.4,55.5 60.9,56.9 C63.9,64.2 66.8,71.5 69.9,78.7 C71.3,82.1 73.4,85 76.5,87.1 C79.5,89.2 82.8,89.1 85.4,86.5 C86.7,85.2 87.8,83.5 88.5,81.8 C90.9,76.2 93.2,70.5 95.5,64.8 C98.9,56.3 102.4,47.8 105.8,39.3 C108.6,32.5 111.3,25.6 114.1,18.9 C115.4,15.7 116.9,12.6 118.6,9.6 C120.7,5.9 123.7,3 127.8,1.6 C132.3,1.19904087e-14 136.8,1.19904087e-14 141.4,0.9 C147.9,2.3 152.3,6.5 155.3,12.3 C157,15.7 158.4,19.2 159.8,22.7 L171.8,52.1 C172,52.6 172.4,53.7 172.5,54.1 C173.3,56.4 170,57.9 169,55.5 L169,55.5 L169,55.5 Z" id="Shape"></path>
                            <path d="M92.8,61.6 C91.4,58.2 89.9,54.9 88.6,51.5 C85.3,43.7 82.2,35.8 79,28 C76.9,22.8 74.9,17.6 72.3,12.6 C69.3,6.7 64.4,2.5 57.8,1 C49.8,-0.9 41.6,1.8 36.4,8.8 C34,12 32.5,15.6 31,19.2 C27,29 23,38.9 19,48.7 C17.9,51.4 16.8,54.1 15.7,56.8 C15.6,57.1 14.7,59.8 14.3,60.8 C13.5,62.7 12.6,64.5 11.8,66.4 C8.3,75 4.3,83.5 1.3,92.4 C-2.9,104.9 5,111.1 10.3,113.4 C14.6,115.3 21.9,114.6 27.3,109.5 C29.8,107.1 30.5,103.8 32.1,99.9 L45.3,67.2 C49.9,55.8 54.5,44.4 59.1,33.1 C60.3,30.2 62.1,27.7 65.3,26.7 C69,25.6 73.3,27 75.2,30.4 C76.9,33.4 78.2,36.5 79.6,39.7 C82.8,47.1 86,54.4 89,61.8 C90.5,65.5 92.3,64 92.8,62.7 C93,62.4 92.9,61.9 92.8,61.6 L92.8,61.6 L92.8,61.6 Z" id="Shape"></path>
                            <circle id="Oval" cx="177.8" cy="98" r="16.2"></circle>
                        </g>
                        <g id="Group" transform="translate(238.000000, 5.000000)">
                            <path d="M14,40.9 L14.2,40.9 C16.8,37.1 21.5,35 26,35 C32,35 36.7,37.4 39.8,42.5 C42.7,37.8 48.2,35 53.8,35 C66,35 69.1,44.2 69.1,54.7 L69.1,84.7 L55.4,84.7 L55.4,59.5 C55.4,54.8 55.7,46.1 48.9,46.1 C41.5,46.1 41.6,56.2 41.6,61.2 L41.6,84.8 L27.9,84.8 L27.9,60.3 C27.9,55.6 28.5,46 21.3,46 C13.7,46 14.1,56 14.1,61.1 L14.1,84.7 L0.4,84.7 L0.4,36.6 L14,36.6 L14,40.9 L14,40.9 L14,40.9 Z" id="Shape" fill="#FFFFFF"></path>
                            <path d="M124.3,84.7 L110.8,84.7 L110.8,80.3 L110.6,80.3 C107.7,84.1 102.6,86.3 97.6,86.3 C83.5,86.3 75.5,73.5 75.5,60.4 C75.5,47.7 83.6,35 97.4,35 C102.4,35 107.5,37.2 110.8,41.1 L110.8,36.6 L124.3,36.6 L124.3,84.7 L124.3,84.7 L124.3,84.7 Z M112.1,60.6 C112.1,54.1 107.7,47.2 100.6,47.2 C93.5,47.2 89.2,54.2 89.2,60.6 C89.2,67.1 93.5,74.1 100.6,74.1 C107.7,74.2 112.1,67.1 112.1,60.6 L112.1,60.6 L112.1,60.6 Z" id="Shape" fill="#FFFFFF"></path>
                            <polygon id="Shape" fill="#FFFFFF" points="152.2 84.7 138.5 84.7 138.5 48.2 131.1 48.2 131.1 36.6 138.5 36.6 138.5 14.6 152.2 14.6 152.2 36.6 159.7 36.6 159.7 48.2 152.2 48.2"></polygon>
                            <path d="M182.3,22.7 C182.3,27.2 178.7,30.8 174.2,30.8 C169.7,30.8 166.1,27.2 166.1,22.7 C166.1,18.3 169.7,14.6 174.2,14.6 C178.7,14.6 182.3,18.3 182.3,22.7 L182.3,22.7 L182.3,22.7 Z M181.1,84.7 L167.4,84.7 L167.4,36.6 L181.1,36.6 L181.1,84.7 L181.1,84.7 L181.1,84.7 Z" id="Shape" fill="#FFFFFF"></path>
                            <polygon id="Shape" fill="#FFFFFF" points="216.8 36.7 209.3 49.1 201.6 36.7 186.7 36.7 202.1 60.6 186.6 84.7 201.2 84.7 209.2 72 216.9 84.7 231.9 84.7 216.3 60.6 232.2 36.7"></polygon>
                            <path d="M282.3,77 L282.1,77 C278.1,82.2 272.2,84.9 265.7,84.9 C251.7,84.9 242.9,73 242.9,59.9 C242.9,46.3 251.5,34.7 265.8,34.7 C272.2,34.7 278.3,37.7 282.1,42.8 L282.3,42.8 L282.3,0 L290.4,0 L290.4,83.6 L282.3,83.6 L282.3,77 L282.3,77 L282.3,77 Z M251.2,59.3 C251.2,68.6 256.7,77.4 266.8,77.4 C277.2,77.4 282.7,69 282.7,59.4 C282.7,49.9 276.7,42.2 266.7,42.2 C257.3,42.1 251.2,50.3 251.2,59.3 L251.2,59.3 L251.2,59.3 Z" id="Shape" fill="#2893FF"></path>
                            <path d="M307,61.5 C307.1,70.3 313.4,77.4 322.6,77.4 C329.5,77.4 334,73.2 337.1,67.6 L344,71.6 C339.4,80.1 331.7,85 322,85 C307.8,85 298.7,74.2 298.7,60.5 C298.7,46.4 306.9,34.7 321.8,34.7 C337.1,34.7 345.2,47.4 344.4,61.6 L307,61.6 L307,61.5 L307,61.5 Z M335.9,54.6 C334.8,47.7 329,42.1 321.9,42.1 C314.9,42.1 308.4,47.7 307.4,54.6 L335.9,54.6 L335.9,54.6 L335.9,54.6 Z" id="Shape" fill="#2893FF"></path>
                            <path d="M361.1,41.7 L361.3,41.7 C364.6,37.1 369,34.6 374.9,34.6 C388.1,34.6 391.1,44.1 391.1,55.3 L391.1,83.6 L383,83.6 L383,56.7 C383,49 382.4,42.1 373,42.1 C361.8,42.1 361.1,52.4 361.1,61 L361.1,83.6 L353,83.6 L353,35.9 L361.1,35.9 L361.1,41.7 L361.1,41.7 L361.1,41.7 Z" id="Shape" fill="#2893FF"></path>
                            <polygon id="Shape" fill="#2893FF" points="412.5 83.6 404.4 83.6 404.4 43.5 399.4 43.5 399.4 36 404.4 36 404.4 18.8 412.5 18.8 412.5 35.9 421 35.9 421 43.4 412.5 43.4"></polygon>
                            <path d="M469.3,83.6 L461.2,83.6 L461.2,77 L461,77 C456.8,82.3 451.3,84.9 444.6,84.9 C430.6,84.9 421.8,73 421.8,59.9 C421.8,46.3 430.4,34.7 444.7,34.7 C451.2,34.7 457.1,37.7 461,42.8 L461.2,42.8 L461.2,36 L469.3,36 L469.3,83.6 L469.3,83.6 L469.3,83.6 Z M430,59.3 C430,68.6 435.5,77.4 445.6,77.4 C456,77.4 461.5,69 461.5,59.4 C461.5,49.9 455.5,42.2 445.5,42.2 C436.1,42.1 430,50.3 430,59.3 L430,59.3 L430,59.3 Z" id="Shape" fill="#2893FF"></path>
                            <polygon id="Shape" fill="#2893FF" points="489.7 83.6 481.6 83.6 481.6 0 489.7 0"></polygon>
                        </g>
                    </g>
                </g>
            </g>
        </g>
    </g>
</svg>