<?xml version="1.0" encoding="utf-8"?>
<!-- Generator: Adobe Illustrator 19.1.0, SVG Export Plug-In . SVG Version: 6.00 Build 0)  -->
<svg version="1.1" id="Layer_1" xmlns="http://www.w3.org/2000/svg" xmlns:xlink="http://www.w3.org/1999/xlink" x="0px" y="0px"
	 viewBox="0 0 990.8 264.4" style="enable-background:new 0 0 990.8 264.4;" xml:space="preserve">
<style type="text/css">
	.st0{opacity:0.85;}
	.st1{fill:#212121;}
</style>
<g class="st0">
	<path class="st1" d="M113.9,57.8c-8,0-35.5,0-56.1,21.9V65.1V0H0v257.8h55.4v-20.6c8,13.9,28.9,27.2,56.1,27.2
		c49.1,0,97.5-34.8,97.5-104.5C209,86.7,154.3,57.8,113.9,57.8z M151.2,160.9c0,25.4-18.8,49.5-48.4,49.5c-28.9,0-47-23-47-49.8
		c0-24,17.4-48.8,48.1-48.8c28.6,0,47.4,24,47.4,48.8V160.9z"/>
	<rect x="223.6" class="st1" width="57.8" height="257.8"/>
	<path class="st1" d="M394.3,57.8c-58.9,0-101.4,49.8-101.4,103.8c0,57.5,47,102.4,102.4,102.4c19.9,0,39-5.9,55-17.4
		c16.4-11.1,30-27.9,39.4-49.5h-59.2c-7,10.1-16.7,18.1-35.2,18.1c-22.6,0-42.1-13.6-44.6-34.1h143.9c4.5-35.5-2.8-66.5-27.2-92.7
		C449.4,69.3,423.9,57.8,394.3,57.8z M351.5,137.2c1.4-9.1,13.2-30.7,43.2-30.7c30,0,41.8,21.6,43.2,30.7H351.5z"/>
	<path class="st1" d="M614.8,57.8c-34.5,0-46.7,17.8-53.3,27.2V64.4h-54v193.3h57.8V152.6c0-19.9,4.5-40.4,33.1-40.4
		c25.8,0,30.3,18.8,30.3,40.1v105.5h57.8V136.9C686.6,110.8,680,57.8,614.8,57.8z"/>
	<path class="st1" d="M850.3,59.9v20.9c-6.3-6.3-22.6-23-56.8-23c-49.1,0-95.8,37.3-95.8,102.8c0,58.2,38.3,103.5,96.8,103.5
		c39,0,52.9-19.2,58.5-27.2v20.9h55V0h-57.8V59.9z M839.8,195.4c-9.1,9.1-21.9,14.6-35.9,14.6c-27.2,0-48.4-19.9-48.4-49.5v-0.3
		c0-22.3,15.7-48.4,49.1-48.4c13.6,0,25.8,4.9,34.5,13.6c8.7,8.4,14.3,20.2,14.3,34.1C854.1,173.8,848.9,186.4,839.8,195.4z"/>
	<rect x="932.3" y="199" class="st1" width="58.5" height="58.5"/>
</g>
</svg>
