<?xml version="1.0" encoding="UTF-8" standalone="no"?>
<svg width="194px" height="115px" viewBox="0 0 194 115" version="1.1" xmlns="http://www.w3.org/2000/svg" xmlns:xlink="http://www.w3.org/1999/xlink">
    <!-- Generator: Sketch 40.1 (33804) - http://www.bohemiancoding.com/sketch -->
    <title>Artboard</title>
    <desc>Created with Sketch.</desc>
    <defs></defs>
    <g id="Page-1" stroke="none" stroke-width="1" fill="none" fill-rule="evenodd">
        <g id="Artboard" fill="#2893FF">
            <g id="logo-matix">
                <g id="Group">
                    <path d="M169,55.5 C166.3,48.8 163.7,42.3 161,35.7 C160,33.2 159,30.6 157,28.6 C154.1,25.5 150.1,24.9 146.5,27.3 C144.5,28.6 143.1,30.6 142.2,32.7 C140.2,37.5 138.3,42.3 136.4,47.2 C134.2,52.7 132,58.2 129.8,63.8 C126.4,72.2 123.1,80.5 119.7,88.9 C117.6,94 115.9,99.2 112.8,103.8 C110.5,107.3 107.6,110.3 103.9,112.2 C96.6,115.9 88.1,114.8 81.9,109.3 C77.5,105.5 74.6,100.7 72.5,95.4 C70.5,90.3 68.4,85.2 66.3,80 C62.7,71.2 59.2,62.4 55.6,53.6 C53.8,49.3 57.3,48.5 58.1,50.4 C58.8,51.8 60.4,55.5 60.9,56.9 C63.9,64.2 66.8,71.5 69.9,78.7 C71.3,82.1 73.4,85 76.5,87.1 C79.5,89.2 82.8,89.1 85.4,86.5 C86.7,85.2 87.8,83.5 88.5,81.8 C90.9,76.2 93.2,70.5 95.5,64.8 C98.9,56.3 102.4,47.8 105.8,39.3 C108.6,32.5 111.3,25.6 114.1,18.9 C115.4,15.7 116.9,12.6 118.6,9.6 C120.7,5.9 123.7,3 127.8,1.6 C132.3,1.19904087e-14 136.8,1.19904087e-14 141.4,0.9 C147.9,2.3 152.3,6.5 155.3,12.3 C157,15.7 158.4,19.2 159.8,22.7 L171.8,52.1 C172,52.6 172.4,53.7 172.5,54.1 C173.3,56.4 170,57.9 169,55.5 L169,55.5 Z" id="Shape"></path>
                    <path d="M92.8,61.6 C91.4,58.2 89.9,54.9 88.6,51.5 C85.3,43.7 82.2,35.8 79,28 C76.9,22.8 74.9,17.6 72.3,12.6 C69.3,6.7 64.4,2.5 57.8,1 C49.8,-0.9 41.6,1.8 36.4,8.8 C34,12 32.5,15.6 31,19.2 C27,29 23,38.9 19,48.7 C17.9,51.4 16.8,54.1 15.7,56.8 C15.6,57.1 14.7,59.8 14.3,60.8 C13.5,62.7 12.6,64.5 11.8,66.4 C8.3,75 4.3,83.5 1.3,92.4 C-2.9,104.9 5,111.1 10.3,113.4 C14.6,115.3 21.9,114.6 27.3,109.5 C29.8,107.1 30.5,103.8 32.1,99.9 C36.5,89 40.9,78.1 45.3,67.2 C49.9,55.8 54.5,44.4 59.1,33.1 C60.3,30.2 62.1,27.7 65.3,26.7 C69,25.6 73.3,27 75.2,30.4 C76.9,33.4 78.2,36.5 79.6,39.7 C82.8,47.1 86,54.4 89,61.8 C90.5,65.5 92.3,64 92.8,62.7 C93,62.4 92.9,61.9 92.8,61.6 L92.8,61.6 Z" id="Shape"></path>
                    <circle id="Oval" cx="177.8" cy="98" r="16.2"></circle>
                </g>
            </g>
        </g>
    </g>
</svg>